<svg width="158" height="158" viewBox="0 0 158 158" fill="none" xmlns="http://www.w3.org/2000/svg">
<path d="M157.719 79C157.719 35.5968 122.403 0.278076 79.0002 0.278076C35.5939 0.278076 0.27832 35.5937 0.27832 79C0.27832 122.406 35.5908 157.722 79.0002 157.722C90.5946 157.722 101.738 155.228 112.169 150.363C117.013 154.909 123.507 157.721 130.661 157.721C145.581 157.721 157.722 145.581 157.722 130.66C157.722 123.507 154.911 117.011 150.364 112.167C155.227 101.738 157.721 90.594 157.721 79.0018L157.719 79ZM152.765 77.6267L144.686 82.4729L142.91 73.5973C142.857 73.3214 142.753 73.0565 142.608 72.8148L135.227 60.5151C134.784 59.7754 133.985 59.3201 133.119 59.3201H128.2C126.84 59.3201 125.74 60.4199 125.74 61.7798V70.6017L121.952 74.3895L108.966 78.7192L100.155 72.1114C99.7293 71.7915 99.213 71.6194 98.6795 71.6194H91.2992C90.5094 71.6194 89.7672 71.9978 89.3021 72.6399C88.8419 73.282 88.7137 74.1084 88.9652 74.8567L96.3455 96.9967C96.7264 98.1454 97.9031 98.8571 99.0811 98.6447L110.979 96.6647V100.008L94.6205 114.033C94.0736 114.5 93.7587 115.182 93.7587 115.899V124.829L80.3274 140.5H77.9654L69.1591 125.085V118.359C69.1591 117.705 68.8979 117.08 68.4389 116.619L61.7789 109.96V98.6798C61.7789 97.3199 60.6791 96.2201 59.3192 96.2201H47.0195C46.8181 96.2201 46.6191 96.2445 46.4238 96.2933L38.0791 98.3795L27.3394 85.4889V72.4823L36.1882 61.4251L56.1954 54.7564L67.4235 65.9795C67.88 66.4409 68.505 66.6985 69.1593 66.6985H91.2993C92.6592 66.6985 93.7591 65.5987 93.7591 64.2388V56.8585C93.7591 55.4986 92.6592 54.3988 91.2993 54.3988H75.0981L61.0587 40.3594C60.5961 39.8967 59.9735 39.6392 59.3192 39.6392H44.5598L48.3976 34.5245L62.183 32.2247C63.3683 32.0281 64.2386 31.0015 64.2386 29.7991V23.9398L76.9742 17.5738L95.9133 19.9408C96.6689 20.0372 97.4209 19.776 97.958 19.2401L106.618 10.5829C133.262 21.3763 152.205 47.286 152.765 77.6266L152.765 77.6267ZM5.19957 79C5.19957 38.3062 38.3089 5.19995 78.9996 5.19995C86.8499 5.19995 94.4133 6.44508 101.516 8.72776L95.3289 14.9118L76.8414 12.6023C76.3642 12.5486 75.8698 12.6267 75.4364 12.8427L60.677 20.2231C59.8457 20.6369 59.3196 21.4877 59.3196 22.4203V27.7169L46.6158 29.8323C45.9908 29.9361 45.433 30.2779 45.0509 30.7845L37.6706 40.6245C37.1127 41.3703 37.0212 42.3664 37.4374 43.2002C37.8561 44.0339 38.707 44.5601 39.6396 44.5601H58.3018L72.3412 58.5994C72.8002 59.0621 73.4252 59.3209 74.0794 59.3209H88.8388V61.7806H70.1766L58.597 50.2009C57.9378 49.5417 56.9661 49.3073 56.0799 49.6077L33.9399 56.988C33.4894 57.1381 33.0939 57.414 32.796 57.7827L22.956 70.0823C22.6081 70.5206 22.4189 71.0589 22.4189 71.6204V86.3798C22.4189 86.956 22.6203 87.5138 22.9878 87.957L35.2874 102.716C35.8954 103.441 36.867 103.761 37.774 103.526L47.3212 101.14H56.8587V110.98C56.8587 111.635 57.1175 112.26 57.5789 112.72L64.2389 119.379V125.74C64.2389 126.168 64.3524 126.588 64.5636 126.961L74.4036 144.181C74.8419 144.947 75.6585 145.42 76.5386 145.42H81.458C82.1758 145.42 82.8582 145.105 83.3257 144.559L98.0851 127.339C98.4696 126.896 98.6795 126.326 98.6795 125.74V117.031L115.038 103.007C115.584 102.539 115.899 101.858 115.899 101.14V93.76C115.899 93.0373 115.582 92.3501 115.029 91.8825C114.478 91.415 113.749 91.2185 113.034 91.332L100.347 93.445L94.7136 76.5394H97.8592L107.043 83.4278C107.687 83.9125 108.528 84.0528 109.296 83.7916L124.055 78.8722C124.417 78.7514 124.746 78.5475 125.017 78.279L129.937 73.3596C130.398 72.8994 130.659 72.2744 130.659 71.6201V64.2398H131.727L138.173 74.9807L140.55 86.8629C140.707 87.6454 141.233 88.307 141.967 88.6293C142.695 88.9564 143.539 88.9027 144.228 88.4889L152.67 83.4242C152.154 92.2267 150.077 100.718 146.51 108.775C142.049 105.534 136.58 103.6 130.659 103.6C115.74 103.6 103.599 115.74 103.599 130.66C103.599 136.582 105.532 142.051 108.772 146.508C99.3778 150.67 89.3825 152.8 78.9994 152.8C38.3056 152.8 5.19939 119.694 5.19939 79.0005L5.19957 79ZM130.662 152.8C118.453 152.8 108.522 142.868 108.522 130.66C108.522 118.451 118.454 108.52 130.662 108.52C142.871 108.52 152.802 118.452 152.802 130.66C152.802 142.868 142.871 152.8 130.662 152.8Z" fill="#D48D32"/>
</svg>
