<svg width="150" height="60" viewBox="0 0 150 60" fill="none" xmlns="http://www.w3.org/2000/svg">
<g clip-path="url(#clip0_308_1028)">
<path d="M5.24992 41.25L5.49992 39.9166H6.24992C7.16659 39.9166 7.83325 39.6666 8.08325 39.0833C8.41659 38.5 9.16659 35.75 10.4166 30.8333L13.1666 19.8333C13.7499 17.5 13.9999 16.0833 13.9999 15.5833C13.9999 15.0833 13.8333 14.6666 13.4166 14.4166C12.9999 14.1666 12.4166 14 11.5833 14H9.99992L10.2499 12.6666C11.0833 12.75 12.9166 12.8333 15.7499 12.8333C18.5833 12.8333 18.6666 12.8333 19.2499 12.6666C19.4999 13.9166 20.1666 16.3333 21.0833 19.9166L24.6666 33.75L30.2499 24.25C31.7499 21.75 33.9166 17.8333 36.8333 12.6666C39.5833 12.75 41.2499 12.8333 41.9166 12.8333C43.0833 12.8333 44.4999 12.8333 46.1666 12.6666L45.9166 14H44.9999C43.9166 14 43.2499 14.25 42.9999 14.5833C42.6666 15 42.3333 16.4166 41.9166 18.9166L39.4166 34.5C39.0833 36.5833 38.9166 37.9166 38.9166 38.5833C38.9166 39.25 39.0833 39.4166 39.3333 39.5833C39.5833 39.75 40.2499 39.8333 41.2499 39.8333H42.4999L42.2499 41.1666L35.5833 41C34.8333 41 32.8333 41 29.7499 41.1666L29.9999 39.8333H31.0833C32.2499 39.8333 32.9166 39.5833 33.2499 39.1666C33.4999 38.75 33.9166 36.75 34.4999 33.3333L36.9999 16.75L30.4999 27.5C28.0833 31.4166 26.0833 35 24.4166 38.0833L22.4999 41.6666H21.4166C20.5833 38.0833 19.5833 34.3333 18.4999 30.4166L15.3333 18.1666C13.7499 24.9166 12.4166 30.5833 11.3333 35.0833C10.9999 36.8333 10.7499 38 10.7499 38.6666C10.7499 39.3333 10.9166 39.3333 11.1666 39.5833C11.4166 39.75 11.9999 39.9166 12.7499 39.9166H14.2499L13.9999 41.25C11.2499 41.1666 9.66659 41.0833 9.24992 41.0833C8.33325 41.0833 6.99992 41.0833 5.08325 41.25H5.24992Z" fill="#EB8E23"/>
<path d="M44.5833 41.25L44.8333 39.9167H46.1667C47.3333 39.9167 48 39.6667 48.25 39.25C48.5833 38.6667 49.0833 36 49.9167 31.0834L51.6667 20.25C52.0833 17.9167 52.25 16.3334 52.25 15.5C52.25 14.6667 52.0833 14.5 51.8333 14.3334C51.5 14.0834 50.8333 14 49.75 14H48.1667L48.4167 12.6667L54.1667 12.8334L63.4167 12.5834C66.4167 12.5834 68.5 13.25 69.6667 14.5C70.9167 15.75 71.5 17.4167 71.5 19.5834C71.5 21.75 70.5 24.5834 68.5 26.5C66.5 28.4167 64.0833 29.4167 61.1667 29.4167C58.25 29.4167 58.8333 29.1667 57.3333 28.5834L57.1667 27.1667C58.4167 27.5834 59.4167 27.8334 60.25 27.8334C61.0833 27.8334 62.0833 27.5 63 26.9167C63.8333 26.3334 64.5833 25.3334 65.1667 24.0834C65.75 22.8334 66 21.4167 66 19.8334C66 18.25 65.5833 16.6667 64.6667 15.75C63.75 14.8334 62.5 14.4167 60.75 14.4167C59 14.4167 58.5 14.5 57.5833 14.75L56.25 23.1667L54.6667 33C54.1667 36 53.9167 37.8334 53.9167 38.5834C53.9167 39.3334 54.0833 39.3334 54.3333 39.5C54.8333 39.75 55.6667 39.9167 56.9167 39.9167H58.0833L57.8333 41.25C54.1667 41.1667 51.9167 41.0834 51.1667 41.0834L44.5 41.25H44.5833Z" fill="#EB8E23"/>
<path d="M75.5 25.6667L75.8333 15.8333C75.9167 14.0833 76.1667 12.6667 76.6667 11.5C77 10.75 77.4167 10.1667 77.9167 9.83333C78.4167 9.5 79 9.25 79.5 9.25C80 9.25 80.5833 9.41667 81 9.83333C81.4167 10.25 81.6667 10.6667 81.6667 11.0833C81.6667 11.5 81.5 12.0833 81.25 12.3333C80.9167 12.6667 80.5833 12.8333 80.1667 12.8333C79.75 12.8333 79.3333 12.6667 78.8333 12.25C78.5833 12 78.3333 11.9167 78.1667 11.9167C78 11.9167 77.8333 11.9167 77.6667 12.1667C77.5 12.3333 77.5 12.5833 77.5 13C77.5 13.4167 77.5 14.25 77.6667 15.5C78.0833 20.1667 78.25 23.9167 78.25 26.75C78.25 29.5833 78.1667 30.9167 78 36.75C77.9167 40.0833 77.4167 42.3333 76.5 43.5C75.9167 44.25 75.1667 44.6667 74.25 44.6667C73.3333 44.6667 73.1667 44.5 72.8333 44.0833C72.5 43.6667 72.25 43.1667 72.25 42.5833C72.25 42 72.4167 41.6667 72.6667 41.3333C72.9167 41 73.3333 40.8333 73.75 40.8333C74.1667 40.8333 74.5833 41 74.9167 41.4167C75.25 41.75 75.5 42 75.75 42C76 42 76.0833 42 76.25 41.75C76.3333 41.5833 76.4167 41.3333 76.4167 40.9167C76.4167 40.5 76.4167 39.75 76.25 38.9167C76.0833 37.3333 75.9167 35.4167 75.8333 33.1667C75.6667 30.3333 75.5833 27.8333 75.5833 25.6667H75.5Z" fill="#801323"/>
<path d="M83.8333 30.4167C83.8333 24.9167 85.3333 20.5 88.4166 17.25C91.4999 14 95.4166 12.3334 100.417 12.3334C105.417 12.3334 107.5 13.4167 109.75 15.5C111.917 17.5834 113.083 20.4167 113.083 24.0834C113.083 27.75 111.833 32.0834 109.25 35.4167C106 39.5834 101.667 41.75 96.2499 41.75C90.8333 41.75 91.4166 41.25 89.5833 40.3334C87.7499 39.4167 86.3333 38.0834 85.4166 36.4167C84.4999 34.75 83.9999 32.75 83.9999 30.4167H83.8333ZM86.9166 47.75V47.1667C86.9166 45.5834 87.4166 44.25 88.4166 43.25C89.4166 42.1667 90.6666 41.6667 92.1666 41.6667C93.6666 41.6667 93.6666 41.75 94.4999 42C95.4166 42.25 96.7499 42.75 98.6666 43.5834C102.25 45.1667 104.5 46.1667 105.25 46.5C106.083 46.8334 106.75 47 107.417 47C108.333 47 109 46.6667 109.583 46.0834C110.167 45.5 110.583 44.4167 110.917 42.9167L112.167 43.3334C111.667 45.75 110.833 47.5 109.833 48.6667C108.75 49.8334 107.583 50.3334 106.333 50.3334C105.083 50.3334 103 49.6667 100.833 48.4167L96.4166 45.9167C94.1666 44.6667 92.4999 44 91.3333 44C90.1666 44 90.1666 44.1667 89.7499 44.4167C89.3333 44.6667 88.9166 45.0834 88.6666 45.5834C88.4166 46.0834 88.2499 46.9167 88.1666 48.0834L86.9166 47.5V47.75ZM89.4999 31.6667C89.4999 34.3334 90.1666 36.3334 91.4999 37.75C92.8333 39.1667 94.6666 39.9167 96.9999 39.9167C99.3333 39.9167 100.75 39.4167 102.083 38.3334C103.417 37.25 104.667 35.25 105.75 32.3334C106.833 29.4167 107.333 26.1667 107.333 22.6667C107.333 19.1667 106.667 17.6667 105.417 16.25C104.083 14.8334 102.25 14.1667 99.8333 14.1667C97.4166 14.1667 96.0833 14.75 94.6666 15.8334C93.2499 16.9167 92.0833 18.9167 91.0833 21.8334C90.0833 24.75 89.5833 28.0834 89.5833 31.8334L89.4999 31.6667Z" fill="#EB8E23"/>
<path d="M140.333 36.0834L139.833 37.6667C137.667 39 136.083 39.8334 135.083 40.25C134.083 40.6667 133.083 41 132 41.25C130.917 41.5 129.75 41.5834 128.583 41.5834C125 41.5834 122.167 40.5834 120.25 38.6667C118.333 36.75 117.333 34 117.333 30.4167C117.333 26.8334 118.083 23.75 119.5 21.1667C120.917 18.5834 123.083 16.4167 126 14.6667C128.917 13 131.917 12.0834 135 12.0834C138.083 12.0834 138 12.25 139.333 12.5834C140.667 12.9167 141.833 13.4167 142.667 13.9167C141.833 16.5834 141.333 18.9167 141.167 20.75H139.75C139.75 20.25 139.833 19.75 139.833 19.25C139.833 18.75 139.833 17.8334 139.667 16.6667C138.75 16 137.833 15.4167 136.833 15.0834C135.833 14.75 134.583 14.5834 133.167 14.5834C130.917 14.5834 129.083 15.0834 127.75 16C126.417 16.9167 125.333 18.5 124.5 20.6667C123.417 23.4167 122.917 26.4167 122.917 29.75C122.917 33.0834 123.583 35 125 36.4167C126.333 37.9167 128.333 38.5834 130.833 38.5834C133.333 38.5834 133.583 38.3334 134.917 37.9167C136.25 37.5 137.833 36.5834 139.75 35.3334L140.167 35.6667L140.333 36.0834Z" fill="#EB8E23"/>
</g>
<defs>
<clipPath id="clip0_308_1028">
<rect width="150" height="60" fill="white"/>
</clipPath>
</defs>
</svg>
