<svg width="80" height="80" viewBox="0 0 80 80" fill="none" xmlns="http://www.w3.org/2000/svg">
<g clip-path="url(#clip0_328_481)">
<path opacity="0.6" d="M40.1303 79.1284C61.7313 79.1284 79.2425 61.6173 79.2425 40.0163C79.2425 18.4152 61.7313 0.904053 40.1303 0.904053C18.5292 0.904053 1.01807 18.4152 1.01807 40.0163C1.01807 61.6173 18.5292 79.1284 40.1303 79.1284Z" fill="white"/>
<path d="M56.5342 76.4162C36.4487 85.5386 12.6898 76.6117 3.57554 56.5343C-5.53869 36.4569 3.38006 12.698 23.4656 3.57566C43.5511 -5.54672 67.3019 3.38018 76.4242 23.4576C85.5466 43.5431 76.6197 67.2938 56.5424 76.4162H56.5342ZM24.1905 5.18022C4.99277 13.9035 -3.53503 36.6117 5.1801 55.8094C13.8952 75.0071 36.6034 83.5349 55.8012 74.8198C74.9989 66.1047 83.5267 43.3965 74.8115 24.1987C66.0964 5.00103 43.3882 -3.53491 24.1905 5.18022Z" fill="#801323"/>
<path d="M15.3776 20.0693L15.1333 19.8575C15.3532 19.5806 15.4591 19.4095 15.4591 19.3444C15.4591 19.2792 15.4021 19.1978 15.2799 19.0837C15.0355 18.8475 14.5631 18.424 13.8545 17.8131C13.5857 17.5769 13.1866 17.243 12.6735 16.8113C12.3233 16.5099 12.1196 16.3552 12.0789 16.3389C12.0382 16.3226 11.9893 16.3226 11.9486 16.3389C11.8916 16.3633 11.745 16.4936 11.5088 16.738L11.2644 16.5262C11.6228 16.1353 11.8997 15.8339 12.0789 15.6221C12.3966 15.2556 12.6735 14.9135 12.9178 14.604L13.1622 14.8158C12.9504 15.1008 12.8364 15.2637 12.8364 15.3208C12.8364 15.3778 12.8771 15.4511 12.9586 15.5488C13.1296 15.728 13.5043 16.062 14.0826 16.5588C14.8482 17.2185 15.3776 17.6747 15.6871 17.9272C15.9966 18.1797 16.184 18.3181 16.2654 18.3344C16.298 18.3426 16.3387 18.3344 16.3876 18.31C16.4365 18.2855 16.5668 18.1634 16.7867 17.9434L17.0311 18.1552L16.7215 18.4973C16.5261 18.7091 16.355 18.9046 16.2003 19.0756L15.3695 20.0856L15.3776 20.0693Z" fill="#801323"/>
<path d="M17.2267 17.87L17.0149 17.6338C17.2104 17.4302 17.3163 17.308 17.3244 17.2592C17.3244 17.2103 17.3 17.1451 17.243 17.0637C17.0801 16.8601 16.7787 16.5098 16.3307 16.0211C16.1108 15.7768 15.9153 15.5731 15.7524 15.4102C15.6547 15.3044 15.5895 15.2473 15.5569 15.2392C15.5325 15.2392 15.5081 15.2392 15.4836 15.2392C15.4592 15.2473 15.337 15.3451 15.1253 15.5243L14.9216 15.3044C15.0275 15.2066 15.166 15.0437 15.3452 14.7994C15.5244 14.555 15.6628 14.3351 15.7606 14.1396L15.8176 14.0419C15.8176 14.0419 15.8746 14.0256 15.9153 14.0745L15.9398 14.107C15.9805 14.1641 16.1027 14.3025 16.3063 14.5306L16.4122 13.7568C16.4203 13.6591 16.4529 13.5776 16.4936 13.5043C16.5588 13.4066 16.6484 13.3007 16.7705 13.1948C16.9742 13.0075 17.1696 12.8934 17.3651 12.8446C17.5606 12.7957 17.7398 12.812 17.9108 12.8772C18.0819 12.9423 18.2855 13.1134 18.5217 13.374C18.6276 13.488 18.7416 13.6265 18.8719 13.7812C19.1407 14.0989 19.3851 14.3758 19.5887 14.5957C19.7027 14.7261 19.8005 14.8075 19.8656 14.832C19.9145 14.8564 19.9552 14.8564 19.996 14.8401C20.0367 14.8238 20.1507 14.7424 20.3462 14.5957L20.558 14.832L20.1914 15.1415L19.9634 15.3451L19.3851 15.8989H19.3199C19.043 15.4836 18.7253 15.0844 18.3751 14.7016C17.9353 14.2129 17.6339 13.9442 17.471 13.879C17.2592 13.8057 17.0556 13.8546 16.852 14.0419C16.7217 14.1641 16.6402 14.2944 16.6076 14.4491C16.5751 14.6039 16.5751 14.7261 16.6076 14.832C16.6239 14.8727 16.7054 14.9786 16.852 15.1415C17.4792 15.8338 17.8457 16.2329 17.9434 16.3306C18.0412 16.4284 18.1145 16.4691 18.1633 16.4691C18.2203 16.4691 18.367 16.3714 18.6032 16.184L18.8149 16.4202C18.4728 16.7134 18.1878 16.9578 17.9516 17.1696C17.8131 17.2917 17.5769 17.5198 17.2267 17.8619V17.87Z" fill="#801323"/>
<path d="M21.12 10.1324L20.7453 9.5785C20.5172 9.23641 20.3706 9.04093 20.3218 8.99206C20.281 8.95948 20.2403 8.94319 20.1996 8.95133C20.1589 8.95133 20.0041 9.04093 19.7435 9.20383L19.5887 8.97577C20.0611 8.57666 20.4195 8.1857 20.672 7.81104L20.8105 7.83547C21.0222 8.19385 21.2259 8.52779 21.4295 8.84545L23.0992 11.3948C23.3843 11.8184 23.5635 12.0709 23.6368 12.1523C23.6856 12.2012 23.7345 12.2338 23.7834 12.2338C23.8323 12.2338 23.9789 12.1686 24.2232 12.0301L24.4024 12.2908C24.1336 12.4537 23.873 12.6166 23.6205 12.7876C23.4413 12.9098 23.2784 13.0238 23.1236 13.146H23.0422C22.9282 12.9098 22.8304 12.7225 22.749 12.584C22.6757 12.7876 22.5698 13.1379 22.4232 13.6184C22.3336 13.7487 22.2277 13.8465 22.1218 13.9198C21.7634 14.156 21.3806 14.2211 20.9652 14.1153C20.5498 14.0094 20.1996 13.7324 19.8982 13.2926C19.7516 13.0808 19.6457 12.8691 19.5806 12.6573C19.5154 12.4537 19.4828 12.2826 19.491 12.1523C19.491 12.022 19.5561 11.8184 19.662 11.5496C19.8086 11.1831 19.9227 10.9306 20.0123 10.8002C20.1018 10.6699 20.224 10.5559 20.3706 10.4582C20.4765 10.3848 20.5905 10.3278 20.7127 10.279C20.8349 10.2301 20.9734 10.1894 21.12 10.1568V10.1324ZM21.5761 10.8247C21.3806 10.7514 21.1933 10.7188 21.0141 10.7351C20.8349 10.7514 20.672 10.8084 20.5172 10.9143C20.2973 11.0609 20.1752 11.2564 20.167 11.4926C20.1589 11.7288 20.2729 12.0383 20.5172 12.4048C20.7697 12.7876 21.0385 13.0238 21.3073 13.1216C21.5761 13.2193 21.8286 13.1867 22.0566 13.032C22.2114 12.9261 22.3173 12.7958 22.3906 12.6166C22.4639 12.4374 22.4802 12.3071 22.4557 12.2256C22.4313 12.136 22.2521 11.8509 21.9345 11.3704L21.5761 10.8328V10.8247Z" fill="#801323"/>
<path d="M23.1643 9.37481L23.0339 9.10603C23.3923 8.89426 23.71 8.6662 23.9869 8.4137L24.272 8.12863C24.3127 8.11234 24.3453 8.12863 24.3697 8.1775L24.4512 8.38927C24.6629 8.94313 24.891 9.47255 25.1272 9.97754C25.282 10.3033 25.396 10.507 25.4774 10.5966C25.5589 10.6862 25.6566 10.7432 25.7706 10.7595C25.8847 10.7757 26.015 10.7595 26.1535 10.6862C26.3164 10.6047 26.4467 10.4907 26.5281 10.3441C26.6096 10.1975 26.6422 10.059 26.6177 9.93682C26.5933 9.81464 26.463 9.48884 26.2186 8.97571C26.0231 8.56031 25.901 8.32411 25.8521 8.25895C25.8277 8.22637 25.7951 8.21008 25.7706 8.20193C25.7299 8.20193 25.5589 8.25895 25.2738 8.38112L25.1435 8.11234C25.5996 7.83541 25.9173 7.60735 26.1046 7.42816L26.4141 7.11865C26.4141 7.11865 26.4874 7.11865 26.5118 7.16752L26.5526 7.26526C26.7073 7.6888 27.0413 8.43814 27.5463 9.50513C27.701 9.83093 27.8069 10.0346 27.8639 10.1079C27.8965 10.1404 27.9291 10.1649 27.9617 10.1649C28.0105 10.1649 28.1653 10.116 28.4259 10.0183L28.5644 10.3033C28.2874 10.4174 28.0187 10.5314 27.758 10.6617C27.5463 10.7595 27.3508 10.8653 27.1716 10.9631L27.1146 10.9142C27.0657 10.792 26.9924 10.6047 26.8865 10.3522C26.748 10.6291 26.634 10.9224 26.5281 11.2319C26.3978 11.3785 26.2512 11.4925 26.0883 11.574C25.8765 11.6798 25.6648 11.7206 25.4693 11.7124C25.2738 11.7043 25.1028 11.6473 24.9562 11.5414C24.8177 11.4355 24.6874 11.2563 24.5652 11.0038L24.3941 10.621C24.2883 10.3848 24.1987 10.1893 24.1335 10.0427C23.938 9.62731 23.8077 9.38296 23.7588 9.30965C23.7181 9.26078 23.6774 9.23635 23.6285 9.2282C23.5796 9.2282 23.433 9.27707 23.1724 9.3911L23.1643 9.37481Z" fill="#801323"/>
<path d="M28.8983 8.90243C29.0124 9.21194 29.0857 9.39113 29.1183 9.41556C29.2079 9.49701 29.3382 9.55402 29.5092 9.57846C29.6803 9.60289 29.8676 9.5866 30.0631 9.52144C30.3074 9.43999 30.4703 9.33411 30.5518 9.19565C30.6414 9.05718 30.6577 8.91057 30.6006 8.73953C30.5518 8.60106 30.4785 8.50332 30.3644 8.44631C30.2504 8.38929 30.0468 8.38115 29.7454 8.41373C29.2893 8.4626 28.9798 8.47074 28.8332 8.43816C28.6866 8.40558 28.5481 8.34042 28.4259 8.22639C28.3038 8.11236 28.2142 7.95761 28.149 7.77027C28.0757 7.54221 28.0676 7.3223 28.1246 7.11053C28.1816 6.89876 28.2956 6.71143 28.4748 6.54038C28.654 6.36934 28.9228 6.23087 29.2649 6.11684C29.6314 6.00281 29.9816 5.9458 30.3319 5.96209C30.3644 6.17386 30.4459 6.49151 30.5681 6.91505L30.2748 7.01279C30.1771 6.75215 30.1038 6.60554 30.0631 6.56482C30.0061 6.5078 29.9165 6.46708 29.7943 6.45079C29.6314 6.4345 29.4685 6.45079 29.3056 6.49966C29.102 6.56482 28.9554 6.66256 28.8658 6.79288C28.7843 6.9232 28.7599 7.05352 28.8088 7.19198C28.8495 7.3223 28.9391 7.41189 29.0612 7.45262C29.1916 7.49334 29.4603 7.49334 29.8676 7.43633C30.1527 7.3956 30.3482 7.37931 30.4703 7.3956C30.6658 7.41189 30.8287 7.47705 30.9672 7.59108C31.1056 7.70511 31.2034 7.86801 31.2767 8.08793C31.4151 8.50332 31.3581 8.87799 31.1056 9.20379C30.8531 9.52959 30.5111 9.76579 30.0631 9.9124C29.9165 9.96127 29.7454 9.99385 29.5581 10.0183C29.3708 10.0427 29.159 10.059 28.9228 10.059L28.8495 10.0183C28.8088 9.79837 28.7192 9.45628 28.5725 8.99202L28.8821 8.88614L28.8983 8.90243Z" fill="#801323"/>
<path d="M31.2522 6.21461L31.6839 5.77478C31.578 5.32681 31.4803 4.944 31.3825 4.61005C31.7002 4.42272 32.0015 4.22724 32.2703 4.00732L32.4006 4.07248C32.4251 4.44715 32.4984 4.95214 32.6206 5.57116C32.7427 5.57116 32.8568 5.54673 32.9708 5.52229C33.2314 5.46528 33.4513 5.39197 33.655 5.31052L33.6957 5.32681V5.47342C33.6875 5.62003 33.6957 5.75849 33.6957 5.88067C33.3943 5.92954 33.1744 5.96212 33.0359 5.9947C32.9301 6.01913 32.8323 6.04357 32.7346 6.07615C32.7835 6.32864 32.8323 6.5567 32.8812 6.75218C33.0685 7.59926 33.207 8.07981 33.2803 8.1857C33.3536 8.29158 33.4921 8.32416 33.6794 8.27529C33.7364 8.259 33.7934 8.24271 33.8504 8.21828C33.9156 8.19384 33.9808 8.16126 34.0459 8.12054L34.1437 8.25086C34.0296 8.45448 33.9238 8.66625 33.8179 8.87802C33.7283 8.9106 33.6468 8.94318 33.5654 8.96762C33.4839 8.99205 33.4188 9.01649 33.3536 9.02463C33.1418 9.0735 32.9545 9.0735 32.7997 9.03278C32.6368 8.99205 32.5147 8.91875 32.4251 8.82101C32.3355 8.72327 32.2622 8.55222 32.2133 8.32416C32.1889 8.20199 32.1237 7.88433 32.0178 7.36306C31.9282 6.90694 31.8549 6.54856 31.7979 6.28792L31.6024 6.3205C31.521 6.33679 31.4232 6.36937 31.3011 6.41009L31.2603 6.21461H31.2522Z" fill="#801323"/>
<path d="M34.3962 8.69074L34.3555 8.37309C34.608 8.32422 34.7546 8.29164 34.7953 8.2672C34.8279 8.25091 34.8442 8.21833 34.8605 8.18575C34.8768 8.12059 34.8768 7.98213 34.8605 7.77036C34.8198 7.39569 34.779 7.0536 34.7383 6.74409C34.6569 6.14951 34.5998 5.79927 34.5754 5.69339C34.5591 5.62823 34.5265 5.5875 34.4858 5.56307C34.4451 5.53864 34.274 5.54678 33.989 5.57122L33.9482 5.278C34.4614 5.15582 34.8198 5.04994 35.0315 4.94405L35.4062 4.74043C35.4062 4.74043 35.4632 4.75672 35.4714 4.80559V4.8626C35.4876 5.0255 35.5202 5.25356 35.5609 5.56307C35.675 5.41646 35.7972 5.24542 35.9275 5.0255C36.0252 4.8626 36.1148 4.75672 36.1963 4.6997C36.2777 4.64269 36.3917 4.61011 36.5383 4.58567C36.6198 4.57753 36.7094 4.57753 36.7908 4.59382C36.799 4.85446 36.8316 5.20469 36.8886 5.64452L36.7257 5.72597C36.6524 5.63638 36.5791 5.57122 36.5058 5.53864C36.4325 5.50606 36.3347 5.49791 36.2207 5.5142C36.0659 5.53864 35.9438 5.59565 35.8379 5.68524C35.7401 5.78298 35.6831 5.88072 35.6668 5.98661C35.6587 6.06806 35.6831 6.3287 35.7401 6.77667C35.8297 7.42827 35.8867 7.80294 35.9193 7.90882C35.9356 7.98213 35.9682 8.02285 36.0089 8.04729C36.0741 8.07987 36.2696 8.07987 36.6035 8.04729L36.6442 8.36494L36.2125 8.41381C35.9356 8.44639 35.6994 8.47083 35.5039 8.49526C35.3166 8.5197 35.0967 8.55228 34.8442 8.593L34.4125 8.66631L34.3962 8.69074Z" fill="#801323"/>
<path d="M37.1737 4.89513V4.57748C37.7601 4.57748 38.1429 4.57748 38.3058 4.57748C38.5339 4.57748 38.8597 4.56119 39.2751 4.53675V4.85441C39.0389 4.8707 38.9004 4.88699 38.8515 4.91957C38.8027 4.95215 38.7864 4.98473 38.7864 5.04174C38.7864 5.11504 38.9248 5.47342 39.1855 6.10873L39.6335 7.16758L39.9755 6.31236C40.2851 5.54673 40.4317 5.1069 40.4317 4.99287C40.4317 4.93586 40.4072 4.90328 40.3584 4.87884C40.3095 4.85441 40.171 4.84626 39.943 4.83812V4.52046H40.1792C40.4398 4.52046 40.6109 4.52046 40.7004 4.52046C40.79 4.52046 41.0344 4.50417 41.4254 4.47974V4.79739C41.3032 4.79739 41.2054 4.82183 41.124 4.86255C41.0914 4.87884 41.0588 4.91142 41.0344 4.95215C40.9937 5.00916 40.8389 5.36754 40.5701 6.03543L39.886 7.697L39.2506 9.23641C39.104 9.55406 38.9737 9.77397 38.8597 9.90429C38.7457 10.0346 38.6153 10.1242 38.4687 10.1894C38.3303 10.2545 38.1674 10.2871 37.9963 10.2871C37.8171 10.2871 37.6298 10.2545 37.4343 10.1649C37.4913 9.91244 37.5321 9.65994 37.5565 9.4156L37.6624 9.37487C37.8171 9.53777 37.9963 9.61922 38.1999 9.61922C38.371 9.61922 38.5094 9.55406 38.6153 9.44003C38.7212 9.326 38.8923 9.0002 39.1122 8.46263L38.1999 6.28792L37.6949 5.12319C37.6542 5.02545 37.6054 4.96844 37.5565 4.93586C37.5076 4.90328 37.3773 4.88699 37.1655 4.87884L37.1737 4.89513Z" fill="#801323"/>
<path d="M43.6489 8.34857L43.7059 8.03091C44.0317 8.08793 44.2191 8.09607 44.2842 8.05535C44.3331 8.03091 44.3738 7.94946 44.4064 7.79471C44.5204 7.30601 44.6426 6.73586 44.7566 6.08426C44.8381 5.60371 44.9277 5.08243 45.0091 4.52857C45.0906 3.97471 45.1232 3.65706 45.115 3.56746C45.1069 3.52674 45.0906 3.49416 45.0662 3.47787C45.0254 3.44529 44.8544 3.38827 44.5449 3.31497L44.6019 2.99731C45.0417 3.08691 45.4245 3.16021 45.7503 3.21723C46.2227 3.29868 46.7114 3.38013 47.2246 3.46158C47.5667 3.51859 47.8517 3.55932 48.0798 3.60004C48.2427 3.63262 48.4056 3.6652 48.5522 3.69778L48.5766 3.78738C48.4708 4.09689 48.3649 4.46341 48.2834 4.8951L47.9658 4.83808L48.0065 4.42269C48.0228 4.29237 48.0146 4.21092 47.9983 4.17834C47.9739 4.14576 47.8843 4.09689 47.7296 4.03987C47.5748 3.98286 47.3467 3.92584 47.0454 3.86883C46.8255 3.8281 46.5893 3.80367 46.3368 3.77923C46.2309 4.20277 46.1657 4.50414 46.1331 4.68333L45.9947 5.50597L45.9621 5.68516C46.1169 5.71774 46.296 5.75846 46.516 5.79104C46.9069 5.8562 47.1431 5.88878 47.2246 5.88878C47.2653 5.88878 47.2979 5.87249 47.3223 5.83991C47.363 5.79104 47.4119 5.63629 47.4771 5.3675L47.8029 5.42452C47.754 5.64443 47.7133 5.87249 47.6725 6.09241C47.64 6.30418 47.583 6.63812 47.5096 7.09424L47.1838 7.03722C47.2246 6.70328 47.2327 6.5078 47.2164 6.44264C47.2083 6.41006 47.1757 6.38563 47.135 6.36119C47.0209 6.30418 46.7766 6.24716 46.4019 6.182L45.8969 6.1087L45.6526 7.57479C45.6037 7.93317 45.5793 8.1368 45.5956 8.19381C45.6037 8.23454 45.6282 8.26712 45.6607 8.29155C45.7096 8.32413 45.9132 8.38929 46.2879 8.47074L46.2309 8.7884C45.8236 8.6988 45.449 8.6255 45.0906 8.56034C44.7729 8.50332 44.3005 8.43002 43.6734 8.34042L43.6489 8.34857Z" fill="#801323"/>
<path d="M47.803 9.1387L47.8926 8.83733C48.1777 8.91064 48.3406 8.93507 48.3894 8.92693C48.4383 8.91878 48.4872 8.85362 48.536 8.73959C48.6012 8.58484 48.7071 8.24275 48.8618 7.71333C48.927 7.48527 48.984 7.26535 49.0329 7.06987L49.1469 6.63004C49.1876 6.48343 49.1958 6.39384 49.1795 6.35312C49.1551 6.31239 49.0818 6.26352 48.9433 6.2228L48.6664 6.1332L48.7478 5.84813C49.3587 5.97845 49.88 6.01103 50.3198 5.95401L50.3931 6.05175C50.2221 6.51601 50.0021 7.20019 49.7334 8.11243C49.5786 8.63371 49.4972 8.95951 49.4809 9.07354C49.4727 9.15499 49.4809 9.212 49.5053 9.24458C49.5297 9.27716 49.6845 9.34232 49.9696 9.45635L49.88 9.75772C49.4401 9.61111 49.0899 9.50522 48.8456 9.43192C48.7152 9.39119 48.3569 9.3016 47.7786 9.14684L47.803 9.1387ZM50.4012 4.03994C50.556 4.08881 50.6782 4.17841 50.7596 4.32501C50.8411 4.47162 50.8574 4.62638 50.8085 4.78928C50.7596 4.94403 50.67 5.06621 50.5234 5.14766C50.3768 5.22911 50.2221 5.2454 50.0592 5.19653C49.8963 5.14766 49.7822 5.05806 49.7008 4.91145C49.6193 4.76484 49.603 4.61009 49.6519 4.45533C49.7008 4.29243 49.7904 4.17026 49.937 4.08881C50.0836 4.00736 50.2383 3.99107 50.4012 4.03994Z" fill="#801323"/>
<path d="M50.0752 9.79021L50.1892 9.49699C50.4336 9.57844 50.5802 9.61917 50.6291 9.61917C50.6617 9.61917 50.6942 9.60288 50.7268 9.57844C50.7757 9.52957 50.8408 9.4074 50.9223 9.21192C51.0689 8.86168 51.1992 8.54403 51.3133 8.25081C51.525 7.69695 51.6472 7.36301 51.6716 7.24898C51.6879 7.18382 51.6798 7.13495 51.6553 7.09422C51.6309 7.0535 51.4843 6.98019 51.2155 6.86616L51.3214 6.58923C51.8264 6.7277 52.1929 6.80915 52.4291 6.81729H52.8527C52.8527 6.81729 52.8934 6.86616 52.8771 6.90689L52.8527 6.95576C52.7875 7.10237 52.6979 7.32228 52.5839 7.60736C52.7549 7.53405 52.9422 7.43631 53.1622 7.31414C53.3251 7.22454 53.4554 7.17567 53.5531 7.15938C53.6509 7.15124 53.7649 7.17567 53.9034 7.22454C53.9767 7.25712 54.05 7.29785 54.1233 7.35486C54.0092 7.59107 53.8708 7.90872 53.6997 8.32411H53.5124C53.4961 8.20194 53.4554 8.11234 53.4065 8.04718C53.3576 7.98203 53.2762 7.93315 53.1703 7.89243C53.0237 7.83542 52.8852 7.82727 52.7549 7.85985C52.6246 7.89243 52.5269 7.95759 52.4536 8.03904C52.4047 8.1042 52.2988 8.34855 52.1359 8.76394C51.8997 9.37482 51.7694 9.7332 51.7449 9.84723C51.7286 9.92053 51.7368 9.97755 51.7612 10.0101C51.802 10.0671 51.973 10.1649 52.2744 10.2952L52.1603 10.5884L51.7612 10.4174C51.5087 10.3115 51.2807 10.2219 51.0933 10.1486C50.9141 10.0834 50.7024 10.002 50.4662 9.92053L50.0508 9.77392L50.0752 9.79021Z" fill="#801323"/>
<path d="M53.9524 10.0102C53.8139 10.3115 53.7406 10.4826 53.7406 10.5314C53.7406 10.6536 53.7976 10.7839 53.8954 10.9224C53.9931 11.0609 54.1397 11.183 54.327 11.2726C54.5551 11.3867 54.7424 11.4274 54.9053 11.3867C55.0601 11.3541 55.1823 11.2563 55.2637 11.1016C55.3289 10.9713 55.3452 10.841 55.3044 10.7269C55.2637 10.6129 55.1252 10.4581 54.889 10.2627C54.5307 9.96944 54.3107 9.76581 54.2212 9.63549C54.1316 9.50517 54.0827 9.35856 54.0827 9.19566C54.0827 9.03277 54.1234 8.86172 54.213 8.67439C54.3189 8.46262 54.4655 8.29972 54.661 8.19383C54.8483 8.0798 55.0682 8.03093 55.3126 8.03908C55.5569 8.04722 55.842 8.13682 56.1678 8.29972C56.5099 8.47076 56.795 8.69068 57.0312 8.95132C56.909 9.12236 56.738 9.40743 56.5262 9.79025L56.2493 9.65178C56.3633 9.39929 56.4203 9.23639 56.4122 9.17938C56.4122 9.09793 56.3714 9.00833 56.2981 8.91059C56.1922 8.78027 56.0701 8.67439 55.9153 8.60108C55.7198 8.50334 55.5488 8.47076 55.4022 8.50334C55.2474 8.53592 55.1415 8.61737 55.0764 8.74769C55.0112 8.86987 55.0112 8.99204 55.0764 9.11421C55.1334 9.23639 55.3289 9.42372 55.6628 9.67622C55.8909 9.84726 56.0456 9.97758 56.1189 10.0672C56.2411 10.2219 56.3144 10.3848 56.3307 10.5559C56.347 10.7351 56.3063 10.9224 56.2004 11.126C56.0049 11.517 55.7035 11.7369 55.2963 11.7939C54.889 11.8509 54.4737 11.7695 54.0583 11.5577C53.9198 11.4844 53.7732 11.3948 53.6266 11.2726C53.4718 11.1586 53.3171 11.012 53.146 10.8572L53.1216 10.7758C53.2519 10.5885 53.4311 10.2871 53.651 9.85541L53.9442 10.002L53.9524 10.0102Z" fill="#801323"/>
<path d="M57.5607 9.78209H58.1797C58.424 9.39113 58.6277 9.0409 58.7987 8.74768C59.1571 8.84542 59.5073 8.91873 59.8576 8.95131L59.9064 9.08977C59.6539 9.37484 59.3526 9.77395 58.9942 10.2952C59.0838 10.3767 59.1734 10.45 59.2711 10.5151C59.491 10.6536 59.7028 10.7676 59.8983 10.8491L59.9146 10.8898L59.8087 10.9876C59.6947 11.0853 59.6051 11.183 59.5236 11.2808C59.2793 11.1016 59.1001 10.9713 58.9779 10.898C58.8883 10.8409 58.7987 10.7921 58.7091 10.7432C58.5625 10.9631 58.4403 11.1504 58.3263 11.3215C57.8539 12.0545 57.6095 12.4862 57.5933 12.6084C57.577 12.7306 57.6421 12.8528 57.805 12.9586C57.8539 12.9912 57.9109 13.0157 57.9679 13.0401C58.0331 13.0645 58.0982 13.089 58.1715 13.1052L58.1471 13.2681C57.919 13.3333 57.6991 13.3985 57.4711 13.4799C57.3815 13.4392 57.3 13.4066 57.2267 13.3659C57.1534 13.3252 57.0883 13.2926 57.0312 13.26C56.8521 13.146 56.7136 13.0157 56.6321 12.869C56.5507 12.7306 56.51 12.5921 56.5181 12.4536C56.5263 12.3152 56.5914 12.1523 56.7217 11.9568C56.7869 11.8509 56.9661 11.5821 57.2674 11.1423C57.5281 10.7595 57.7317 10.4581 57.8783 10.2301L57.7154 10.116C57.6421 10.0753 57.5525 10.0183 57.4385 9.96128L57.5444 9.79024L57.5607 9.78209Z" fill="#801323"/>
<path d="M59.5723 14.8972L59.8573 14.5714L60.9732 14.5143C61.8854 14.4655 62.5289 14.384 62.8954 14.2537C63.2619 14.1315 63.547 13.9442 63.7588 13.708C63.9706 13.4718 64.0683 13.2356 64.0602 13.0075C64.0602 12.7795 63.9543 12.5758 63.7506 12.3966C63.604 12.2663 63.4411 12.1849 63.2701 12.1442C63.099 12.1116 62.9687 12.1116 62.8873 12.1523C62.8465 12.1686 62.6592 12.2989 62.3253 12.5351L62.0809 12.3233C62.4882 11.9894 62.8303 11.6799 63.1072 11.403C63.3923 11.3867 63.6448 11.4193 63.881 11.5088C64.109 11.5903 64.3371 11.7288 64.557 11.9242C64.9398 12.2663 65.1516 12.6329 65.1923 13.0401C65.233 13.4474 65.1027 13.8139 64.8176 14.1397C64.5814 14.4085 64.2638 14.5958 63.8484 14.7098C63.4411 14.8239 62.5208 14.889 61.0954 14.9053L61.0791 14.9623L61.7633 15.565C62.2683 16.013 62.6674 16.3388 62.9606 16.5587V16.6239C62.7895 16.7705 62.6755 16.8927 62.6022 16.9741C62.5289 17.0556 62.4474 17.1696 62.3578 17.3081H62.3008C61.9425 16.9578 61.5189 16.5669 61.0302 16.1352C60.6718 15.8175 60.1831 15.4021 59.5723 14.8972Z" fill="#801323"/>
<path d="M63.4901 16.404L63.5064 16.3144C63.7426 16.2411 63.9951 16.119 64.272 15.9561C64.5815 16.3144 64.8421 16.6077 65.0458 16.8276C65.2575 17.0638 65.51 17.3244 65.8033 17.6095L65.7788 17.6991C65.5426 17.7887 65.282 17.9027 65.005 18.0493C64.7281 17.7235 64.4675 17.4384 64.2394 17.1859C64.0032 16.9335 63.7507 16.6728 63.4819 16.3959L63.4901 16.404Z" fill="#801323"/>
<path d="M64.9888 20.3788L65.2494 20.1915C65.4042 20.4032 65.5345 20.5417 65.6322 20.5987C65.6892 20.6313 65.7625 20.6313 65.844 20.5987C65.8684 20.5906 66.0802 20.4521 66.4793 20.1833L66.7074 20.0204C66.9924 19.8168 67.1553 19.6783 67.2123 19.5969C67.2938 19.4666 67.4567 19.1082 67.701 18.5136C67.9373 17.919 68.1002 17.4792 68.1816 17.2023C68.2631 16.9172 68.2956 16.7054 68.2875 16.5669C68.2875 16.5181 68.2631 16.4611 68.2223 16.404L68.1083 16.2574L68.3608 16.0782C68.6703 16.3878 68.9961 16.6728 69.3219 16.9579C69.3463 17.1045 69.3545 17.243 69.3382 17.3652C69.3056 17.5443 69.2079 17.8457 69.0287 18.2611C68.8495 18.6765 68.5807 19.2385 68.1979 19.9553L68.8251 19.8982C69.3952 19.8494 70.169 19.7598 71.1464 19.6376L71.5129 20.1507L71.3581 20.2648C71.1464 20.2485 70.6984 20.2648 70.0061 20.2973C68.9228 20.3544 68.2956 20.4032 68.1327 20.444C68.0268 20.4684 67.8558 20.5661 67.6115 20.7453C67.1228 21.1037 66.7807 21.3562 66.5933 21.5272C66.4956 21.6168 66.4467 21.6901 66.4549 21.7553C66.463 21.8205 66.5607 21.9996 66.7562 22.2847L66.4956 22.4721C66.292 22.1544 66.072 21.8367 65.844 21.5272C65.5915 21.177 65.3146 20.8023 64.9969 20.4032L64.9888 20.3788Z" fill="#801323"/>
<path d="M69.3137 26.007L69.2648 26.1617L68.8576 26.178C68.6703 26.064 68.4992 25.9337 68.3526 25.7708C68.206 25.6079 68.0675 25.4205 67.9616 25.2088C67.701 24.7119 67.6358 24.2395 67.7743 23.7997C67.9128 23.3599 68.2467 23.0015 68.768 22.7245C69.1019 22.5535 69.3952 22.4476 69.6558 22.4232C69.8676 22.3987 70.0712 22.4313 70.2748 22.5291C70.4784 22.6268 70.6821 22.749 70.8938 22.8956C71.1056 23.0422 71.2766 23.2458 71.407 23.4902C71.6024 23.8648 71.6595 24.2314 71.578 24.5816C71.4966 24.9318 71.2196 25.2332 70.7554 25.4775C70.6984 25.5101 70.6088 25.5509 70.4866 25.5997L70.0875 25.0947C69.9816 24.9237 69.8431 24.6793 69.6721 24.3535L69.2811 23.6123C68.9065 23.8567 68.6703 24.1255 68.5725 24.435C68.4748 24.7445 68.5155 25.0459 68.6784 25.3635C68.7436 25.4938 68.8332 25.616 68.939 25.7219C69.0449 25.8278 69.1671 25.9255 69.3056 26.0151L69.3137 26.007ZM69.6395 23.3924C69.7291 23.6042 69.8268 23.816 69.9327 24.0277C70.0305 24.2069 70.1364 24.3943 70.2585 24.5816L70.4214 24.5002C70.7065 24.3535 70.8857 24.1906 70.959 24.0196C71.0323 23.8486 71.0242 23.6775 70.9346 23.4983C70.8694 23.3761 70.7798 23.2865 70.6739 23.2295C70.568 23.1725 70.4459 23.1481 70.3155 23.1644C70.1852 23.1807 69.9572 23.254 69.6395 23.3924Z" fill="#801323"/>
<path d="M70.4704 30.0957L70.1691 30.2097L70.0713 29.9246C70.0225 29.778 69.9736 29.6232 69.9166 29.4766C69.827 29.2486 69.7374 29.0368 69.6478 28.8413L69.6722 28.7925L70.1854 28.6377L69.3301 28.1001C69.2487 27.978 69.1835 27.8639 69.1509 27.758C69.0532 27.5056 69.0532 27.2775 69.1509 27.082C69.2487 26.8865 69.4442 26.7318 69.7374 26.6177C70.0958 26.4793 70.389 26.4793 70.6089 26.6177C70.894 26.7888 71.2768 27.2693 71.7492 28.0513C72.0343 27.9372 72.2216 27.8069 72.3112 27.6685C72.4415 27.4648 72.4497 27.2286 72.3438 26.9517C72.3193 26.8865 72.2868 26.8214 72.246 26.7562C72.2053 26.6911 72.1564 26.634 72.0913 26.577L71.6433 26.5607L71.6107 26.2838L71.7736 26.2268L71.9284 26.1616L72.075 26.1046C72.4415 26.3897 72.6859 26.6015 72.808 26.7399C72.8976 26.8458 72.9791 27.0006 73.0605 27.2042C73.1664 27.4893 73.2153 27.7336 73.199 27.9454C73.1827 28.1572 73.1094 28.3282 72.9954 28.4667C72.8813 28.6051 72.6777 28.7273 72.3926 28.8332C72.2705 28.8821 72.0587 28.9554 71.7492 29.0612C71.4315 29.1671 71.179 29.2649 70.9836 29.3382C70.6822 29.4522 70.503 29.5337 70.4378 29.5744C70.4053 29.5988 70.3808 29.6314 70.3727 29.6803C70.3727 29.7291 70.389 29.8594 70.4541 30.0875L70.4704 30.0957ZM71.4397 28.1653C71.1872 27.7743 70.9836 27.5381 70.8288 27.4485C70.6741 27.3589 70.503 27.3508 70.3238 27.4241C70.1772 27.4811 70.0795 27.5626 70.0225 27.6766C69.9654 27.7906 69.9654 27.9128 70.0143 28.035C70.0876 28.2223 70.2668 28.3771 70.56 28.4992L71.4478 28.1653H71.4397Z" fill="#801323"/>
<path d="M70.1853 30.3237L70.4948 30.2423C70.5763 30.4948 70.6251 30.6333 70.6577 30.6658C70.6821 30.6903 70.7066 30.7066 70.7473 30.7147C70.8125 30.7229 70.9509 30.7147 71.1546 30.6577C71.5211 30.5681 71.855 30.4866 72.1564 30.4133C72.7347 30.2586 73.0768 30.1608 73.1827 30.1201C73.2397 30.0957 73.2804 30.0631 73.2967 30.0142C73.313 29.9735 73.2967 29.8025 73.2234 29.5174L73.5085 29.4441C73.6876 29.9328 73.8424 30.283 73.9727 30.4785L74.2171 30.8287C74.2171 30.8287 74.2089 30.8858 74.1601 30.902H74.103C73.9401 30.9428 73.7121 30.9998 73.4189 31.0812C73.5736 31.179 73.7691 31.2767 73.9972 31.3826C74.1682 31.464 74.2822 31.5374 74.3474 31.6107C74.4125 31.684 74.4614 31.7898 74.5021 31.9365C74.5266 32.0179 74.5347 32.0994 74.5266 32.1889C74.2741 32.2297 73.9239 32.303 73.4922 32.4089L73.3863 32.2541C73.4677 32.1727 73.5166 32.0912 73.541 32.0098C73.5655 31.9283 73.5573 31.8387 73.5329 31.7247C73.4922 31.5781 73.4189 31.4559 73.313 31.3663C73.2071 31.2767 73.1012 31.236 72.9953 31.2278C72.9139 31.2278 72.6532 31.2849 72.2215 31.3989C71.5862 31.5618 71.2197 31.6677 71.122 31.7165C71.0568 31.741 71.0161 31.7817 70.9998 31.8224C70.9754 31.8876 70.9998 32.0831 71.0731 32.4089L70.7636 32.4903L70.6659 32.0668C70.6007 31.798 70.5437 31.5618 70.4948 31.3745C70.4459 31.1871 70.3889 30.9753 70.3156 30.731L70.1934 30.3075L70.1853 30.3237Z" fill="#801323"/>
<path d="M76.5709 34.5918H76.8967C76.8967 35.0153 76.8967 35.39 76.8967 35.7158C76.9049 36.0579 76.9293 36.457 76.9619 36.9131H76.6361C76.6198 36.6525 76.5954 36.4814 76.5628 36.4244C76.5302 36.3674 76.4732 36.343 76.3999 36.343C76.3103 36.343 75.8949 36.4407 75.1456 36.628L73.1337 37.1249L75.2189 38.0534C76.0334 38.4199 76.6361 38.6806 77.0189 38.8353V39.1774L73.0523 40.9123L75.4795 41.4906C76.0008 41.6128 76.3592 41.6698 76.5628 41.6698C76.6442 41.6698 76.7012 41.6372 76.7257 41.5802C76.7501 41.5232 76.7664 41.344 76.7583 41.0345H77.0841C77.0841 41.5069 77.0841 41.8082 77.0841 41.9386C77.0841 42.0933 77.1085 42.3784 77.1329 42.7775H76.8071C76.7827 42.5739 76.742 42.4436 76.6931 42.3784C76.6442 42.3132 76.5302 42.2644 76.3429 42.2155C76.0578 42.134 75.2433 41.9223 73.8912 41.5965L71.6106 41.0589L71.5862 40.3259L75.4551 38.6561L73.3292 37.7195C72.6613 37.4263 72.0505 37.1738 71.4885 36.9457L71.4722 36.3918C71.7817 36.3185 72.7428 36.0742 74.3555 35.6588L76.1555 35.1945C76.3347 35.1457 76.4406 35.0968 76.4813 35.0479C76.5139 34.999 76.5465 34.8443 76.5628 34.5918H76.5709Z" fill="#801323"/>
<path d="M71.2766 46.3775L70.959 46.3287L71.016 46.0354C71.0486 45.8807 71.073 45.7259 71.0974 45.5712C71.13 45.3268 71.1626 45.0988 71.1789 44.887L71.2278 44.8544L71.749 44.9766L71.2766 44.0888C71.2685 43.9422 71.2685 43.8119 71.2848 43.706C71.3255 43.4372 71.4395 43.2417 71.6187 43.1195C71.8061 42.9974 72.0504 42.9566 72.3599 43.0055C72.7427 43.0625 72.9952 43.2091 73.1174 43.4291C73.2803 43.7223 73.378 44.325 73.4025 45.2372C73.7038 45.278 73.9319 45.2617 74.0867 45.1802C74.2984 45.0662 74.4206 44.8626 74.4695 44.5775C74.4776 44.5123 74.4858 44.439 74.4695 44.3576C74.4695 44.2843 74.4532 44.2028 74.4287 44.1295L74.0459 43.8933L74.1518 43.6408L74.3229 43.6734L74.4939 43.6978L74.6487 43.7141C74.8278 44.1458 74.9419 44.4472 74.9745 44.6264C74.9989 44.7567 74.9989 44.9359 74.9663 45.1558C74.9174 45.4572 74.836 45.6934 74.7138 45.8725C74.5916 46.0517 74.4532 46.1658 74.2821 46.2309C74.1111 46.2961 73.8749 46.3042 73.5817 46.2554C73.4595 46.2391 73.2314 46.1983 72.9138 46.1413C72.5798 46.0843 72.3192 46.0354 72.1156 46.0029C71.7979 45.954 71.6024 45.9296 71.5291 45.9377C71.4884 45.9377 71.4477 45.9621 71.4232 45.9947C71.3907 46.0273 71.3499 46.1658 71.2929 46.3938L71.2766 46.3775ZM73.0685 45.1639C73.036 44.6997 72.9789 44.3902 72.8812 44.2435C72.7916 44.0888 72.645 43.9992 72.4495 43.9748C72.2948 43.9503 72.1644 43.9748 72.0586 44.0481C71.9527 44.1214 71.8957 44.2273 71.8712 44.3576C71.8386 44.5612 71.9201 44.7811 72.1156 45.0255L73.0522 45.1721L73.0685 45.1639Z" fill="#801323"/>
<path d="M70.9265 46.4264L71.236 46.5078C71.179 46.7603 71.1546 46.9151 71.1627 46.9558C71.1627 46.9884 71.1872 47.0209 71.2116 47.0454C71.2605 47.0861 71.3908 47.1431 71.5944 47.2001C71.9609 47.306 72.2867 47.4038 72.5881 47.4771C73.1664 47.6318 73.5085 47.7133 73.6225 47.7296C73.6877 47.7377 73.7365 47.7296 73.7773 47.697C73.8099 47.6644 73.875 47.5096 73.9565 47.2327L74.2415 47.306C74.1601 47.8191 74.1194 48.1938 74.1356 48.43L74.1764 48.8536C74.1764 48.8536 74.1356 48.9024 74.0949 48.8861L74.0461 48.8699C73.8913 48.821 73.6632 48.7558 73.37 48.6744C73.4596 48.8373 73.5736 49.0165 73.7203 49.2201C73.8261 49.3748 73.8913 49.497 73.9157 49.5948C73.932 49.6925 73.9239 49.8065 73.8913 49.9531C73.8669 50.0346 73.8343 50.1079 73.7854 50.1893C73.5411 50.0997 73.2071 49.9939 72.7754 49.8717L72.7591 49.6843C72.8732 49.6518 72.9546 49.611 73.0116 49.5459C73.0687 49.4889 73.1094 49.4074 73.142 49.2934C73.1827 49.1468 73.1745 49.0083 73.1257 48.878C73.0768 48.7477 73.0035 48.6581 72.9139 48.6011C72.8406 48.5603 72.5881 48.487 72.1564 48.3649C71.5211 48.1938 71.1546 48.1042 71.0406 48.0961C70.9673 48.0879 70.9102 48.0961 70.8777 48.1287C70.8288 48.1775 70.7473 48.3567 70.6496 48.6744L70.3401 48.5929L70.4623 48.1775C70.5437 47.9087 70.6089 47.6807 70.6577 47.4852C70.7066 47.2979 70.7636 47.0861 70.8206 46.8417L70.9184 46.4182L70.9265 46.4264Z" fill="#801323"/>
<path d="M70.1609 49.2935L70.4623 49.4075C70.3808 49.66 70.3483 49.8066 70.3483 49.8473C70.3483 49.8799 70.3645 49.9125 70.389 49.9451C70.4378 49.9939 70.56 50.0591 70.7555 50.1324C71.1057 50.2709 71.4234 50.4012 71.7166 50.5071C72.2786 50.7107 72.6126 50.8329 72.7184 50.8573C72.7836 50.8736 72.8325 50.8654 72.8732 50.841C72.9139 50.8166 72.9872 50.6618 73.1013 50.393L73.3782 50.4989C73.2479 51.0039 73.1746 51.3786 73.1664 51.6148V52.0383C73.1664 52.0383 73.1257 52.079 73.0768 52.0627L73.028 52.0383C72.8813 51.9732 72.6614 51.8917 72.3763 51.7858C72.4497 51.9569 72.5474 52.1442 72.6777 52.3641C72.7755 52.527 72.8243 52.6573 72.8325 52.7551C72.8406 52.8528 72.8243 52.9668 72.7755 53.1053C72.7429 53.1868 72.7022 53.2601 72.6451 53.3252C72.4089 53.2112 72.0831 53.0809 71.6677 52.918V52.7306C71.7818 52.7062 71.8714 52.6736 71.9365 52.6166C72.0017 52.5677 72.0506 52.4863 72.0913 52.3804C72.1483 52.2338 72.1564 52.0953 72.1157 51.965C72.075 51.8347 72.018 51.7369 71.9284 51.6718C71.8632 51.6229 71.6189 51.5252 71.1953 51.3704C70.5845 51.1424 70.2179 51.0202 70.112 50.9958C70.0387 50.9795 69.9817 50.9876 69.9491 51.012C69.8921 51.0528 69.8025 51.2238 69.6722 51.5333L69.3708 51.4193L69.5338 51.0202C69.6396 50.7596 69.7211 50.5396 69.7944 50.3523C69.8596 50.1731 69.9329 49.9613 70.0143 49.7251L70.1528 49.3097L70.1609 49.2935Z" fill="#801323"/>
<path d="M67.7907 55.5244L67.5056 55.3859L67.6522 55.1253C67.7337 54.9868 67.807 54.8484 67.8721 54.7099C67.978 54.49 68.0758 54.2782 68.1572 54.0827L68.2142 54.0664L68.6703 54.3352L68.4912 53.3415C68.5237 53.1949 68.5645 53.0728 68.6133 52.975C68.7355 52.7307 68.8984 52.5759 69.1183 52.5189C69.3382 52.4619 69.5744 52.4945 69.8595 52.6329C70.2016 52.804 70.4052 53.0157 70.4541 53.2682C70.5193 53.594 70.4297 54.1968 70.169 55.0764C70.446 55.2067 70.6659 55.2637 70.8369 55.2312C71.0731 55.1904 71.2523 55.0357 71.3826 54.7669C71.4152 54.7017 71.4396 54.6366 71.4559 54.5633C71.4722 54.49 71.4804 54.4085 71.4804 54.3271L71.1871 53.985L71.3663 53.7732L71.5211 53.8547L71.6758 53.928L71.8143 53.9931C71.855 54.4574 71.8713 54.7832 71.8469 54.9624C71.8306 55.0927 71.7736 55.2638 71.6758 55.4674C71.5374 55.7443 71.3908 55.9398 71.2197 56.0701C71.0487 56.2004 70.8776 56.2656 70.6985 56.2737C70.5193 56.2819 70.2912 56.2167 70.0224 56.0864C69.9084 56.0294 69.7048 55.9235 69.4197 55.7687C69.1265 55.6058 68.8821 55.4837 68.7029 55.3941C68.4097 55.2475 68.2305 55.1742 68.1654 55.1579C68.1246 55.1497 68.0839 55.1579 68.0432 55.1823C68.0025 55.2067 67.921 55.3208 67.7988 55.5244H67.7907ZM69.8677 54.9217C69.9817 54.4737 70.0143 54.1642 69.9735 53.985C69.9328 53.8139 69.8269 53.6836 69.6477 53.594C69.5093 53.5207 69.379 53.5044 69.2568 53.5452C69.1346 53.5859 69.045 53.6592 68.988 53.7814C68.8984 53.9606 68.9066 54.2049 69.0206 54.4981L69.8677 54.9217Z" fill="#801323"/>
<path d="M67.4159 55.5895L67.6765 55.7687C67.5299 56.0131 67.4648 56.1515 67.4648 56.2004C67.4648 56.2493 67.5136 56.3063 67.5951 56.3633C67.8069 56.5262 68.1815 56.7868 68.7272 57.1534C68.996 57.3326 69.2322 57.4873 69.4359 57.6095C69.558 57.6828 69.6313 57.7235 69.6639 57.7235C69.6883 57.7235 69.7128 57.7235 69.7372 57.6991C69.7617 57.6746 69.8512 57.5606 70.0141 57.3326L70.2585 57.5036C70.177 57.6176 70.0793 57.8131 69.9653 58.0982C69.8512 58.3751 69.7698 58.6195 69.7209 58.8312L69.6883 58.9371C69.6883 58.9371 69.6313 58.9616 69.5825 58.9371L69.558 58.9127C69.501 58.8638 69.3544 58.7579 69.1019 58.5869L69.1834 59.3688C69.1915 59.4665 69.1834 59.5561 69.1589 59.6376C69.1182 59.7516 69.053 59.8738 68.9634 60.0041C68.8087 60.2322 68.6458 60.3869 68.4666 60.4847C68.2874 60.5743 68.1082 60.6068 67.929 60.5824C67.7417 60.558 67.5055 60.4439 67.2123 60.2485C67.082 60.1589 66.9353 60.0611 66.7724 59.9389C66.4304 59.6946 66.1371 59.4828 65.8846 59.3118C65.738 59.214 65.6321 59.157 65.5588 59.1489C65.51 59.1407 65.4692 59.1489 65.4285 59.1652C65.3878 59.1815 65.2982 59.2955 65.1435 59.4828L64.8828 59.3036L65.1597 58.9208L65.3389 58.6683L65.7706 57.9923H65.8358C66.2023 58.3181 66.6014 58.6276 67.0331 58.9208C67.5788 59.2873 67.9372 59.4828 68.1082 59.4991C68.3281 59.5236 68.5155 59.4258 68.6702 59.1978C68.768 59.0511 68.8168 58.9045 68.8168 58.7416C68.8168 58.5787 68.7843 58.4647 68.7191 58.3751C68.6947 58.3344 68.5888 58.2529 68.4096 58.1308C67.6358 57.6013 67.1878 57.3081 67.0657 57.2348C66.9435 57.1615 66.8702 57.1371 66.8213 57.1452C66.7643 57.1615 66.6421 57.2918 66.4629 57.528L66.2023 57.3488C66.4711 56.9823 66.6828 56.6728 66.862 56.4203C66.9679 56.2656 67.1471 55.9886 67.4078 55.5732L67.4159 55.5895Z" fill="#801323"/>
<path d="M67.1717 61.3642L67.0902 61.9751C67.4404 62.2683 67.7499 62.5208 68.0269 62.7244C67.8803 63.0665 67.7662 63.4005 67.6766 63.7426L67.53 63.7751C67.2857 63.4901 66.9273 63.1317 66.463 62.7081C66.3734 62.7815 66.2839 62.871 66.2106 62.9525C66.0395 63.1561 65.901 63.3435 65.787 63.5308H65.7463L65.6648 63.4249C65.5834 63.3027 65.4938 63.1968 65.4205 63.0991C65.6323 62.8792 65.787 62.7244 65.8766 62.6104C65.9418 62.529 66.0069 62.4475 66.0639 62.3661C65.8685 62.195 65.6974 62.0403 65.5427 61.9099C64.8829 61.3479 64.492 61.0384 64.3698 61.0058C64.2476 60.9651 64.1173 61.0221 63.9951 61.1687C63.9544 61.2095 63.9218 61.2665 63.8892 61.3235C63.8567 61.3805 63.8241 61.4457 63.7915 61.519L63.6367 61.4701C63.6042 61.2421 63.5716 61.0058 63.5227 60.7778C63.5716 60.6963 63.6204 60.623 63.6693 60.5579C63.7182 60.4927 63.7589 60.4357 63.8078 60.3787C63.9462 60.2158 64.0929 60.1018 64.2476 60.0366C64.4024 59.9714 64.5408 59.9551 64.6793 59.9877C64.8096 60.0122 64.9725 60.1018 65.1436 60.2565C65.2413 60.338 65.4775 60.5579 65.8766 60.9081C66.2187 61.2176 66.4956 61.462 66.6992 61.6412L66.8296 61.4945C66.8866 61.4294 66.9436 61.3479 67.0169 61.2421L67.1717 61.3724V61.3642Z" fill="#801323"/>
<path d="M65.5671 63.6775L65.787 63.9056C65.339 64.3047 65.0621 64.5572 64.9399 64.6712C64.7689 64.826 64.5408 65.054 64.2476 65.3554L64.0277 65.1273C64.1987 64.9563 64.2883 64.8422 64.3046 64.7934C64.3209 64.7445 64.3046 64.6956 64.272 64.6549C64.215 64.5979 63.8811 64.4269 63.2621 64.1336L62.2195 63.6449L62.5372 64.5083C62.8222 65.2821 63.0014 65.7138 63.0829 65.7952C63.1236 65.8359 63.1643 65.8441 63.2132 65.8359C63.2621 65.8196 63.3761 65.7382 63.5471 65.5834L63.7671 65.8115L63.5797 65.9744C63.3842 66.1454 63.2539 66.2595 63.1888 66.3165C63.1236 66.3816 62.9526 66.5527 62.6756 66.8296L62.4557 66.6016C62.5453 66.512 62.6105 66.4305 62.643 66.3491C62.6512 66.3165 62.6593 66.2758 62.643 66.2269C62.6349 66.1536 62.5127 65.7871 62.2684 65.111L61.6656 63.4169L61.1118 61.8449C61.0059 61.5109 60.957 61.2585 60.957 61.0874C60.957 60.9164 60.9896 60.7535 61.0548 60.615C61.1199 60.4765 61.2095 60.3462 61.3398 60.224C61.4702 60.1019 61.6331 60.0123 61.8367 59.939C61.967 60.167 62.1055 60.3788 62.2439 60.5743L62.1951 60.672C61.967 60.6557 61.7797 60.7127 61.6331 60.8512C61.5109 60.9652 61.4457 61.1037 61.4376 61.2585C61.4294 61.4132 61.5272 61.7716 61.7227 62.3173L63.8566 63.3273L65.0132 63.8567C65.111 63.8974 65.1843 63.9137 65.2413 63.9056C65.2983 63.8974 65.4042 63.8241 65.5752 63.6857L65.5671 63.6775Z" fill="#801323"/>
<path d="M59.3932 67.0169C59.719 67.5382 59.8411 68.0025 59.7597 68.4179C59.6619 68.9066 59.3361 69.3301 58.7904 69.6722C58.2447 70.0143 57.7642 70.1364 57.3569 70.0468C56.9497 69.9573 56.5831 69.6396 56.2411 69.1102C55.899 68.5563 55.7768 68.0432 55.8827 67.5626C55.9886 67.0821 56.2981 66.683 56.8112 66.3572C57.3162 66.0395 57.7967 65.9336 58.2366 66.0477C58.6764 66.1617 59.0592 66.4793 59.3932 67.0169ZM58.6194 67.807C58.2529 67.2205 57.9189 66.854 57.6176 66.6993C57.3814 66.5771 57.1451 66.5934 56.9171 66.74C56.7135 66.8703 56.6076 67.0495 56.5994 67.2776C56.5913 67.5056 56.7216 67.8396 56.9904 68.2712C57.3569 68.8577 57.6827 69.2242 57.9596 69.3627C58.1877 69.4767 58.4158 69.4523 58.652 69.3057C58.8556 69.1753 58.9615 68.9961 58.9778 68.7599C58.9941 68.5237 58.8719 68.2061 58.6275 67.807H58.6194Z" fill="#801323"/>
<path d="M54.9053 67.6359L55.0356 67.9291C54.7831 68.0594 54.6447 68.1409 54.6284 68.1816C54.6039 68.2223 54.6121 68.2956 54.6528 68.3933C54.7424 68.6377 54.9216 69.0612 55.1904 69.664C55.3207 69.9653 55.4429 70.2178 55.5487 70.4296C55.6139 70.5599 55.6546 70.6332 55.6791 70.6495C55.6954 70.6658 55.7279 70.6658 55.7524 70.6658C55.785 70.6658 55.9234 70.6088 56.1841 70.5029L56.3062 70.7717C56.1759 70.8287 55.9886 70.9427 55.7442 71.1219C55.4999 71.3011 55.2963 71.464 55.1415 71.6188L55.0601 71.6921C55.0601 71.6921 54.9949 71.6921 54.9705 71.635V71.6025C54.9379 71.5292 54.8646 71.3581 54.7424 71.0893L54.4003 71.7898C54.3596 71.8794 54.3026 71.9527 54.2374 72.0016C54.1478 72.0749 54.0256 72.1482 53.879 72.2133C53.6265 72.3274 53.4066 72.3681 53.2111 72.3518C53.0157 72.3355 52.8446 72.2704 52.698 72.1482C52.5595 72.026 52.4129 71.8061 52.2663 71.4884C52.2012 71.35 52.136 71.1789 52.0546 70.9916C51.8998 70.6006 51.7532 70.2667 51.631 69.9898C51.5577 69.835 51.5007 69.7291 51.4437 69.6803C51.403 69.6477 51.3704 69.6314 51.3297 69.6314C51.2889 69.6314 51.1505 69.6721 50.9143 69.7536L50.7839 69.4603L51.2238 69.2811L51.5088 69.1671L52.2256 68.825L52.2826 68.8576C52.4211 69.33 52.5921 69.8106 52.8039 70.283C53.0727 70.8857 53.2682 71.2359 53.4066 71.3418C53.5777 71.4803 53.7894 71.4966 54.0419 71.3826C54.2048 71.3092 54.327 71.2115 54.4085 71.073C54.4899 70.9427 54.5306 70.8205 54.5225 70.7065C54.5225 70.6576 54.4736 70.5355 54.384 70.34C54.0012 69.4848 53.7813 68.9961 53.7161 68.8739C53.651 68.7517 53.6021 68.6866 53.5532 68.6703C53.4962 68.654 53.3252 68.6947 53.0482 68.8087L52.9179 68.5155C53.3333 68.3445 53.6836 68.1979 53.9686 68.0757C54.1397 68.0024 54.441 67.8558 54.8809 67.644L54.9053 67.6359Z" fill="#801323"/>
<path d="M45.3919 71.179L45.3186 70.8695L45.6118 70.8125C45.7666 70.7881 45.9213 70.7555 46.0761 70.7147C46.3123 70.6577 46.5404 70.6007 46.744 70.5356L46.7928 70.5681L46.8743 71.0976L47.5259 70.3238C47.6562 70.2586 47.7784 70.2179 47.8843 70.1935C48.1531 70.1365 48.373 70.169 48.5603 70.2912C48.7395 70.4134 48.8698 70.6333 48.935 70.9347C49.0246 71.3093 48.9838 71.5944 48.8209 71.798C48.6092 72.0587 48.0879 72.3682 47.2408 72.7266C47.3141 73.0198 47.4119 73.2315 47.5422 73.3374C47.7214 73.4922 47.9576 73.5329 48.2427 73.4678C48.3078 73.4515 48.3811 73.427 48.4463 73.3944C48.5114 73.3619 48.5766 73.3211 48.6418 73.2641L48.7151 72.8243H48.992L49.0246 73.0035L49.0653 73.1664L49.106 73.313C48.7721 73.6388 48.5359 73.8506 48.3811 73.9565C48.2671 74.0298 48.1042 74.0949 47.8843 74.1438C47.5829 74.2089 47.3386 74.2252 47.1268 74.1764C46.9232 74.1275 46.7521 74.0379 46.6381 73.9076C46.5159 73.7691 46.4263 73.5573 46.353 73.2641C46.3286 73.142 46.2797 72.922 46.2146 72.5962C46.1494 72.2623 46.0924 72.0017 46.0517 71.798C45.9783 71.4804 45.9295 71.293 45.8969 71.2279C45.8806 71.1872 45.848 71.1627 45.7992 71.1464C45.7584 71.1301 45.6118 71.1464 45.3838 71.1709L45.3919 71.179ZM47.1675 72.4089C47.5911 72.2134 47.8517 72.0424 47.9576 71.8958C48.0635 71.7573 48.096 71.5863 48.0553 71.3989C48.0227 71.2442 47.9494 71.1301 47.8435 71.065C47.7377 70.9998 47.6236 70.9754 47.4933 71.008C47.2978 71.0568 47.1186 71.2116 46.9639 71.4804L47.1757 72.4089H47.1675Z" fill="#801323"/>
<path d="M45.7014 76.0334L45.7258 76.2533C45.3675 76.3511 45.0905 76.4325 44.8869 76.514C44.6833 76.5954 44.4634 76.6932 44.2353 76.8153L44.1213 76.742C44.048 75.8217 43.9014 74.5347 43.6977 72.8976C43.657 72.5637 43.6081 72.2297 43.5593 71.8958C43.5267 71.684 43.5023 71.5537 43.4778 71.5211C43.4534 71.4885 43.4208 71.4641 43.3719 71.4478C43.3312 71.4315 43.1765 71.4397 42.9077 71.4559L42.8669 71.1383L43.2742 71.0976C43.5267 71.0731 43.7385 71.0487 43.9095 71.0324L45.0579 70.8695L45.0987 71.1872L44.8136 71.236C44.6833 71.2605 44.61 71.293 44.5774 71.3419C44.5448 71.3908 44.5448 71.5537 44.5774 71.8306C44.61 72.2216 44.6751 72.7754 44.7647 73.484L44.9765 75.1293C45.0417 75.6262 45.0905 75.9112 45.1231 75.9683C45.1394 76.0008 45.1557 76.0171 45.1883 76.0334C45.2371 76.0579 45.4082 76.0579 45.7095 76.0334H45.7014Z" fill="#801323"/>
<path d="M42.7693 76.3755V76.6035C42.4191 76.6687 42.1259 76.7339 41.9223 76.7909C41.7105 76.856 41.4906 76.9375 41.2462 77.0434L41.1403 76.9619C41.1403 76.0334 41.0996 74.7465 41.0263 73.0931C41.01 72.7591 40.9937 72.4252 40.9693 72.0831C40.953 71.8632 40.9367 71.741 40.9123 71.7084C40.8878 71.6758 40.8634 71.6514 40.8145 71.627C40.7738 71.6107 40.6191 71.6025 40.3503 71.6025L40.334 71.2849H40.7412C40.9937 71.2767 41.2055 71.2686 41.3765 71.2604L42.5331 71.1871L42.5494 71.5048L42.2643 71.5292C42.134 71.5374 42.0526 71.5699 42.02 71.6107C41.9874 71.6514 41.9711 71.8143 41.9711 72.0994C41.9711 72.4903 41.9956 73.0442 42.0281 73.7609L42.1096 75.4144C42.134 75.9194 42.1585 76.2044 42.191 76.2696C42.1992 76.3022 42.2236 76.3185 42.2562 76.3348C42.3051 76.3592 42.4761 76.3755 42.7775 76.3673L42.7693 76.3755Z" fill="#801323"/>
<path d="M37.8009 73.0849C37.7276 73.6958 37.5239 74.1356 37.2063 74.4044C36.8235 74.722 36.3022 74.8442 35.6587 74.7628C35.0153 74.6813 34.5673 74.4777 34.3067 74.1519C34.046 73.8261 33.9564 73.3455 34.0379 72.7265C34.1193 72.0831 34.3474 71.6025 34.7302 71.3011C35.113 70.9998 35.6099 70.8776 36.2126 70.9509C36.8072 71.0242 37.2389 71.2441 37.5076 71.6106C37.7764 71.9772 37.8742 72.4659 37.8009 73.0849ZM36.7094 73.2234C36.7909 72.5392 36.7664 72.0423 36.628 71.7328C36.5221 71.4885 36.3266 71.3581 36.0578 71.3256C35.8216 71.293 35.6261 71.3663 35.4714 71.5455C35.3166 71.7165 35.2108 72.0586 35.1456 72.5555C35.0641 73.2478 35.0804 73.7283 35.2108 74.0134C35.3166 74.2415 35.504 74.3718 35.7809 74.4044C36.0171 74.437 36.2207 74.3636 36.3836 74.1845C36.5465 74.0053 36.6524 73.6876 36.7094 73.2234Z" fill="#801323"/>
<path d="M33.1665 73.8017L33.085 74.0868C32.6778 74.0135 32.2868 73.989 31.9121 73.9972L31.5049 74.0298C31.456 74.0216 31.4479 73.9809 31.4642 73.9239L31.5375 73.704C31.733 73.142 31.904 72.5963 32.0506 72.0587C32.1402 71.7166 32.1891 71.4804 32.1809 71.3582C32.1809 71.236 32.1402 71.1302 32.0669 71.0406C31.9936 70.951 31.8796 70.8858 31.7248 70.8451C31.5456 70.7962 31.3827 70.8044 31.2198 70.8614C31.0569 70.9265 30.951 71.008 30.8859 71.1139C30.8207 71.2197 30.7148 71.5537 30.5682 72.1076C30.446 72.5474 30.389 72.808 30.3809 72.8895C30.3809 72.9302 30.389 72.9628 30.4135 72.9872C30.446 73.0198 30.6089 73.0849 30.9103 73.1745L30.8289 73.4596C30.2994 73.3782 29.9085 73.3456 29.6478 73.3537L29.2162 73.3863C29.1754 73.3782 29.1591 73.3456 29.1754 73.2886L29.208 73.1908C29.3628 72.7673 29.599 71.9854 29.9085 70.8451C30.0062 70.4948 30.0551 70.2749 30.0551 70.1772C30.0551 70.1283 30.0388 70.0957 30.0225 70.0713C29.9899 70.0387 29.8352 69.9736 29.5745 69.884L29.656 69.5745C29.9411 69.6641 30.218 69.7537 30.4949 69.827C30.723 69.8921 30.9347 69.941 31.1384 69.9736L31.1547 70.0469C31.1139 70.169 31.0488 70.3645 30.9673 70.6252C31.2524 70.503 31.5293 70.3564 31.8063 70.1935C32.0017 70.1609 32.1891 70.169 32.3601 70.2179C32.5882 70.2831 32.7755 70.3808 32.9221 70.5193C33.0687 70.6577 33.1583 70.8125 33.1991 70.9835C33.2398 71.1546 33.2235 71.3745 33.1502 71.6433L33.0362 72.0505C32.9628 72.303 32.8977 72.5067 32.857 72.6614C32.7348 73.1094 32.6696 73.3782 32.6696 73.4678C32.6696 73.5248 32.6778 73.5736 32.7185 73.6144C32.7511 73.647 32.9058 73.704 33.1746 73.7854L33.1665 73.8017Z" fill="#801323"/>
<path d="M29.5499 69.5093L29.4277 69.8025C29.1834 69.7129 29.0368 69.6722 28.996 69.6722C28.9635 69.6722 28.9309 69.6885 28.8983 69.7129C28.8494 69.7618 28.7843 69.8839 28.6947 70.0713C28.5399 70.4134 28.4096 70.731 28.2874 71.0242C28.0594 71.5781 27.9372 71.912 27.9046 72.0179C27.8883 72.0831 27.8883 72.132 27.9209 72.1727C27.9453 72.2134 28.0919 72.2949 28.3607 72.4089L28.2467 72.6858C27.7417 72.5392 27.3752 72.4496 27.139 72.4333H26.7154C26.7154 72.4333 26.6747 72.3763 26.691 72.3356L26.7154 72.2867C26.7887 72.1401 26.8783 71.9202 26.9924 71.6433C26.8213 71.7084 26.6258 71.8062 26.4059 71.9202C26.243 72.0098 26.1127 72.0587 26.015 72.0668C25.9172 72.0668 25.8032 72.0505 25.6647 71.9935C25.5914 71.9609 25.5181 71.9202 25.4448 71.8632C25.567 71.6351 25.7136 71.3093 25.8847 70.9021H26.072C26.0883 71.0242 26.1209 71.1138 26.1697 71.179C26.2186 71.2442 26.3 71.293 26.4059 71.3419C26.5525 71.3989 26.691 71.4152 26.8213 71.3826C26.9516 71.35 27.0575 71.293 27.1227 71.2034C27.1716 71.1383 27.2774 70.9021 27.4485 70.4785C27.6928 69.8677 27.8313 69.5174 27.8557 69.4034C27.872 69.3301 27.872 69.2812 27.8394 69.2405C27.7987 69.1835 27.6277 69.0857 27.3263 68.9473L27.4485 68.6541L27.8476 68.8251C28.1001 68.9391 28.32 69.0287 28.5073 69.102C28.6865 69.1753 28.8901 69.2568 29.1264 69.3464L29.5336 69.5011L29.5499 69.5093Z" fill="#801323"/>
<path d="M22.3091 72.0505L22.1218 72.3193C21.7797 72.0587 21.4783 71.8306 21.2095 71.6433C20.9245 71.4478 20.5987 71.2197 20.2158 70.9754L20.4032 70.7066C20.6312 70.8532 20.7779 70.9346 20.843 70.9428C20.9082 70.9509 20.9652 70.9265 21.0059 70.8613C21.0548 70.788 21.234 70.3971 21.5353 69.6885L22.3417 67.7825L20.3462 68.8903C19.5643 69.3219 19.0022 69.6477 18.6439 69.8676L18.3588 69.6722L19.3525 65.4531L17.4384 67.0495C17.023 67.3916 16.7624 67.6441 16.6483 67.807C16.5995 67.8721 16.5913 67.9373 16.6239 67.9862C16.6565 68.0432 16.795 68.1572 17.0393 68.3445L16.852 68.6133C16.4692 68.3201 16.2248 68.1409 16.1189 68.0676C15.9886 67.978 15.7605 67.8233 15.4185 67.6115L15.6058 67.3427C15.7931 67.4486 15.9234 67.4975 15.9967 67.4975C16.0701 67.4975 16.1922 67.4323 16.3388 67.3183C16.575 67.1391 17.2348 66.6097 18.3018 65.73L20.1018 64.2313L20.7045 64.6549L19.719 68.7518L21.739 67.6115C22.3661 67.2531 22.9444 66.9192 23.4657 66.6015L23.9218 66.9192C23.7996 67.2124 23.4168 68.1328 22.7815 69.6722L22.0729 71.3908C21.9996 71.5618 21.9752 71.6758 21.9915 71.7328C22.0077 71.7899 22.1136 71.9039 22.3091 72.0668V72.0505Z" fill="#801323"/>
<path d="M17.3978 64.321C16.958 64.7445 16.5263 64.9644 16.1027 64.9726C15.6059 64.9726 15.1254 64.7526 14.6774 64.2802C14.2294 63.816 14.0013 63.3761 14.0095 62.9607C14.0095 62.5454 14.2375 62.1137 14.6937 61.6738C15.1579 61.2259 15.6385 60.9978 16.1272 60.9978C16.6159 60.9978 17.072 61.2177 17.5037 61.6575C17.9191 62.0892 18.1227 62.5291 18.0983 62.9852C18.0738 63.4413 17.8458 63.8811 17.3978 64.321ZM16.4611 63.7345C16.958 63.254 17.2512 62.8467 17.3326 62.5209C17.3978 62.2684 17.3326 62.0404 17.1453 61.8449C16.9743 61.6738 16.7788 61.6087 16.5507 61.6494C16.3227 61.6901 16.0294 61.8856 15.6629 62.2358C15.1661 62.7164 14.8729 63.1074 14.7914 63.4087C14.7262 63.6531 14.7914 63.873 14.9869 64.0766C15.1579 64.2476 15.3534 64.321 15.5896 64.2802C15.8258 64.2476 16.1109 64.0685 16.4448 63.7427L16.4611 63.7345Z" fill="#801323"/>
<path d="M15.9561 60.1181L15.7036 60.3136C15.5326 60.1181 15.4348 60.0041 15.3941 59.9878C15.3615 59.9715 15.3289 59.9715 15.2882 59.9715C15.2231 59.9878 15.1009 60.0529 14.9298 60.1833C14.6203 60.4032 14.3434 60.6068 14.0991 60.8023C13.6266 61.1688 13.3497 61.3887 13.2683 61.4702C13.2194 61.519 13.2031 61.5598 13.2031 61.6086C13.2031 61.6575 13.2927 61.796 13.4637 62.0403L13.2275 62.2195C12.8692 61.8367 12.5922 61.5761 12.4049 61.4457L12.0465 61.2177C12.0465 61.2177 12.0302 61.1607 12.071 61.1281L12.1198 61.0955C12.2501 61.0059 12.4456 60.8674 12.6818 60.6801C12.5026 60.6557 12.2827 60.6312 12.0302 60.6231C11.8429 60.6231 11.7044 60.5905 11.6148 60.5498C11.5252 60.5091 11.4356 60.4276 11.3461 60.3136C11.2972 60.2484 11.2565 60.1751 11.2239 60.0855C11.4438 59.9471 11.7289 59.7434 12.0872 59.4828L12.242 59.5805C12.2013 59.6864 12.185 59.7842 12.1931 59.8656C12.2013 59.9471 12.242 60.0285 12.3153 60.1181C12.413 60.2403 12.5189 60.3217 12.6574 60.3624C12.7959 60.4032 12.9017 60.4032 13.0076 60.3624C13.0809 60.3299 13.3008 60.1751 13.6592 59.9063C14.1805 59.5072 14.4737 59.271 14.5552 59.1896C14.604 59.1407 14.6285 59.0837 14.6285 59.043C14.6285 58.9697 14.5226 58.7986 14.3353 58.5298L14.5878 58.3344L14.8402 58.6846C15.0031 58.9126 15.1416 59.1 15.2638 59.2629C15.3778 59.4176 15.5163 59.5887 15.6792 59.7842L15.9561 60.1262V60.1181Z" fill="#801323"/>
<path d="M14.0664 57.7235L13.7895 57.8864C13.6429 57.6502 13.5451 57.5199 13.4963 57.4955C13.4718 57.4792 13.4392 57.4792 13.4067 57.4873C13.3496 57.4955 13.1134 57.6176 12.7143 57.8457C12.3152 58.0738 11.8998 58.3181 11.4682 58.5706C11.1179 58.7742 10.6781 59.043 10.1405 59.377C9.74956 59.6213 9.53779 59.7598 9.49707 59.8005C9.46449 59.8412 9.44005 59.8819 9.44005 59.9308C9.44005 59.9797 9.50521 60.1181 9.63553 60.3462L9.39118 60.4847C9.18756 60.2077 9.00837 59.9797 8.86176 59.8249C8.707 59.662 8.55225 59.5236 8.3975 59.4177C8.35677 59.3851 8.33234 59.3607 8.31605 59.3444C8.29976 59.3118 8.31605 59.2792 8.37306 59.2385L8.51967 59.157C8.69071 59.0674 9.31788 58.7009 10.4175 58.0656L11.3541 57.5199L11.5333 57.4059C10.8573 57.1697 10.0917 56.966 9.22828 56.8031C9.14683 56.6402 9.07353 56.4936 9.00022 56.3633C8.91063 56.2167 8.81289 56.0619 8.69886 55.899L8.97579 55.7361C9.13869 55.9724 9.23643 56.119 9.2853 56.1597C9.33417 56.2004 9.42376 56.2493 9.56223 56.3063C9.70069 56.3633 10.1079 56.4936 10.784 56.7135L11.0446 55.9072C11.346 54.9787 11.5089 54.4411 11.5333 54.2945C11.5496 54.1968 11.5333 54.0909 11.4763 53.9687L11.7532 53.8058C11.8835 54.0664 12.0139 54.2945 12.136 54.5063C12.2338 54.6692 12.3315 54.8239 12.4374 54.9787C12.2745 55.3696 12.136 55.7524 12.0139 56.119C11.851 56.624 11.7369 57.0231 11.6636 57.3244L12.2012 57.0068C12.5107 56.8194 12.7143 56.681 12.8121 56.5914C12.8528 56.5506 12.8772 56.5099 12.8772 56.4611C12.8772 56.4203 12.8121 56.2737 12.6818 56.0212L12.9587 55.8583C13.1949 56.2982 13.3578 56.5832 13.4474 56.7298C13.5288 56.8683 13.7325 57.2022 14.0583 57.7154L14.0664 57.7235Z" fill="#801323"/>
<path d="M11.6229 53.7243L11.3215 53.8302C11.2238 53.5858 11.1505 53.4474 11.1179 53.4229C11.0853 53.3985 11.0283 53.3903 10.9713 53.3985C10.8491 53.4229 10.5559 53.5207 10.1161 53.6836C9.17939 54.0257 8.68255 54.2293 8.60924 54.2782C8.55223 54.3189 8.54408 54.4166 8.6011 54.5714L8.68255 54.8076L8.40562 54.9135C8.26715 54.6284 8.12869 54.3922 8.00651 54.1967C7.88434 54.0012 7.75402 53.8383 7.6237 53.6917C7.59926 53.6591 7.58297 53.6428 7.57483 53.6184C7.55854 53.5858 7.58297 53.5533 7.64813 53.537C7.697 53.5207 7.75402 53.5044 7.83547 53.4799C7.86805 53.4718 7.93321 53.4474 8.0228 53.4229L8.15312 53.3741L7.48523 52.9424C7.34677 52.8528 7.2246 52.6736 7.135 52.4211C7.03726 52.1605 7.01283 51.9405 7.0617 51.7451C7.11057 51.5496 7.2246 51.3785 7.41193 51.2156L6.69517 50.7758C6.55671 50.6944 6.45082 50.5396 6.36937 50.3278C6.23091 49.945 6.22276 49.6355 6.34494 49.383C6.46711 49.1305 6.7359 48.935 7.15944 48.7803L7.4608 48.6744C7.80289 48.5604 8.10425 48.4545 8.36489 48.3567C8.71513 48.2264 8.93504 48.1368 9.02464 48.0798C9.07351 48.0472 9.10609 48.0065 9.11423 47.9658C9.12238 47.9251 9.0898 47.7785 9.01649 47.5341L9.31785 47.4282C9.41559 47.7377 9.50519 47.9984 9.58664 48.2264C9.66809 48.4463 9.75768 48.6663 9.85542 48.8943L9.79841 48.9595C9.2527 49.0898 8.73142 49.2446 8.23457 49.4237C7.64813 49.6437 7.28976 49.8228 7.17573 49.9695C7.0617 50.1161 7.04541 50.3034 7.135 50.5315C7.19202 50.6781 7.27346 50.8002 7.39564 50.8898C7.51781 50.9794 7.6237 51.0202 7.73773 51.0202C7.81103 51.0202 8.03095 50.955 8.38933 50.8247C9.03278 50.5885 9.47261 50.4174 9.70881 50.3115C9.8147 50.2627 9.87986 50.2138 9.89615 50.1649C9.91244 50.1161 9.87986 49.9532 9.79841 49.6762L10.0998 49.5704C10.2057 49.8962 10.3115 50.2057 10.4174 50.5152C10.5559 50.898 10.6862 51.2319 10.8165 51.5333L10.5152 51.6392C10.4256 51.403 10.3441 51.2727 10.2545 51.2564C10.1731 51.2401 9.85542 51.3297 9.31785 51.5333C8.69884 51.7614 8.32417 51.9161 8.1857 51.9894C8.04724 52.0627 7.9495 52.1686 7.90877 52.2908C7.86805 52.4129 7.87619 52.5596 7.93321 52.7225C7.97393 52.8446 8.04724 52.9424 8.13683 53.0238C8.22643 53.1053 8.34046 53.1541 8.46263 53.1867C8.53594 53.203 8.62553 53.1867 8.73956 53.146L8.87803 53.089C8.94319 53.0564 9.13052 52.9831 9.44817 52.8691L9.87986 52.7143C10.2953 52.5596 10.5315 52.4618 10.6048 52.4211C10.6536 52.3967 10.6781 52.3641 10.6862 52.3234C10.6944 52.2826 10.6699 52.1442 10.6048 51.8998L10.9061 51.7939C10.9957 52.0872 11.1098 52.4129 11.2319 52.755C11.2727 52.8772 11.403 53.203 11.6147 53.7243H11.6229Z" fill="#801323"/>
<path d="M8.43828 43.8363L8.74779 43.7793L8.78852 44.0725C8.81295 44.2273 8.83739 44.382 8.86182 44.5368C8.91069 44.773 8.95956 45.001 9.01657 45.2128L8.98399 45.2617L8.45457 45.3187L9.19576 46.0029C9.25278 46.1413 9.2935 46.2635 9.31794 46.3694C9.36681 46.6382 9.32608 46.8581 9.19576 47.0373C9.06545 47.2165 8.84553 47.3305 8.53602 47.3875C8.16135 47.4608 7.87628 47.412 7.6808 47.2409C7.4283 47.021 7.14323 46.4834 6.80929 45.6282C6.50792 45.6934 6.3043 45.783 6.18212 45.9051C6.01922 46.0762 5.97035 46.3124 6.02737 46.6056C6.04366 46.6708 6.05995 46.7441 6.09253 46.8092C6.12511 46.8744 6.16583 46.9477 6.2147 47.0129L6.65453 47.1106L6.63824 47.3875L6.4672 47.412L6.3043 47.4445L6.14954 47.4771C5.83189 47.135 5.62826 46.8825 5.53867 46.7278C5.47351 46.6137 5.41649 46.4427 5.37577 46.2228C5.31875 45.9214 5.31875 45.6689 5.37577 45.4653C5.43278 45.2617 5.53052 45.0988 5.66899 44.9848C5.80745 44.8707 6.02737 44.7811 6.32059 44.7241C6.44276 44.6997 6.67082 44.6671 6.98848 44.6101C7.32242 44.5612 7.5912 44.5123 7.78668 44.4716C8.10434 44.4146 8.29982 44.3657 8.36498 44.3332C8.4057 44.3169 8.43014 44.2843 8.44643 44.2436C8.46272 44.2028 8.46272 44.0562 8.44643 43.8282L8.43828 43.8363ZM7.14323 45.5712C7.32242 45.9947 7.48532 46.2717 7.62378 46.3775C7.76225 46.4916 7.92515 46.5323 8.12063 46.4916C8.27538 46.459 8.38941 46.3938 8.46272 46.2961C8.53602 46.1902 8.56046 46.0762 8.53602 45.9459C8.4953 45.7422 8.34869 45.563 8.0799 45.392L7.15137 45.5712H7.14323Z" fill="#801323"/>
<path d="M8.69893 43.5512L8.38128 43.5675C8.3487 43.2906 8.31612 43.1277 8.29168 43.0951C8.2591 43.0625 8.19394 43.0381 8.08806 43.0381C7.82742 43.0381 7.36315 43.0544 6.70341 43.0869C6.37761 43.1032 6.10068 43.1277 5.86448 43.144C5.71787 43.1602 5.63642 43.1684 5.61198 43.1847C5.59569 43.201 5.5794 43.2173 5.57126 43.2498C5.56311 43.2824 5.56311 43.429 5.57126 43.706L5.26989 43.7222C5.26989 43.5838 5.22102 43.3639 5.14772 43.0707C5.07441 42.7774 4.99296 42.5331 4.90337 42.3376L4.86264 42.2317C4.86264 42.2317 4.88708 42.1747 4.95224 42.1747H4.98482C5.05812 42.1747 5.24546 42.1747 5.54682 42.1584L5.00925 41.5883C4.94409 41.515 4.89522 41.4417 4.86264 41.3602C4.82192 41.2462 4.80563 41.1077 4.79749 40.953C4.7812 40.676 4.82192 40.4561 4.90337 40.2769C4.98482 40.0977 5.11514 39.9674 5.27804 39.8697C5.44094 39.7719 5.70158 39.7231 6.05181 39.7068C6.20657 39.7068 6.38576 39.6905 6.58938 39.6905C7.00478 39.6823 7.3713 39.666 7.67266 39.6498C7.84371 39.6416 7.96588 39.6172 8.03104 39.5846C8.07991 39.5602 8.10435 39.5276 8.12064 39.495C8.13693 39.4624 8.14507 39.3158 8.15322 39.0715L8.47087 39.0552V39.5357L8.48716 39.8452L8.55232 40.6434L8.50345 40.6923C8.00661 40.6516 7.50162 40.6434 6.98848 40.6679C6.32874 40.7005 5.92964 40.7656 5.78303 40.8552C5.59569 40.9692 5.5061 41.1647 5.52239 41.4335C5.53053 41.6127 5.58755 41.7593 5.67714 41.8815C5.76674 42.0037 5.87262 42.0851 5.97851 42.1177C6.01923 42.134 6.14955 42.134 6.36947 42.1177C7.30614 42.0688 7.84371 42.0362 7.97403 42.0199C8.11249 42.0037 8.19394 41.9792 8.21838 41.9385C8.25096 41.8896 8.27539 41.7186 8.27539 41.4172L8.59305 41.4009C8.60119 41.8489 8.61748 42.2317 8.63377 42.5412C8.64192 42.7286 8.66635 43.0625 8.70708 43.5431L8.69893 43.5512Z" fill="#801323"/>
<path d="M7.29786 38.3059C7.63181 38.314 7.81914 38.314 7.85987 38.2977C7.9739 38.2489 8.07164 38.1511 8.16123 37.9964C8.25083 37.8498 8.30784 37.6706 8.32413 37.4669C8.34042 37.2144 8.30784 37.019 8.2101 36.8886C8.11236 36.7583 7.98204 36.685 7.811 36.6687C7.66439 36.6606 7.54221 36.6932 7.45262 36.7746C7.36302 36.8561 7.27343 37.0434 7.18383 37.3366C7.05351 37.7764 6.94763 38.0615 6.85803 38.1918C6.77658 38.3222 6.65441 38.4199 6.5078 38.4932C6.36119 38.5665 6.182 38.5909 5.97838 38.5747C5.74217 38.5584 5.53855 38.4851 5.35936 38.3466C5.18831 38.2163 5.05799 38.0371 4.9684 37.8009C4.8788 37.5728 4.84622 37.2715 4.8788 36.9049C4.90324 36.5221 4.99283 36.1719 5.13944 35.8542C5.34307 35.9031 5.66887 35.952 6.1087 35.9927L6.08426 36.3022C5.80733 36.3022 5.63629 36.3022 5.58742 36.3348C5.51411 36.3674 5.44081 36.4325 5.38379 36.5384C5.30234 36.685 5.25347 36.8398 5.24533 37.0108C5.22904 37.2307 5.26162 37.4018 5.35121 37.524C5.44081 37.6461 5.55484 37.7194 5.70145 37.7276C5.83991 37.7357 5.9458 37.695 6.03539 37.5891C6.12498 37.4832 6.22272 37.2389 6.32861 36.8316C6.40191 36.5547 6.46707 36.3674 6.51594 36.2615C6.60554 36.0904 6.72771 35.9601 6.88247 35.8787C7.03722 35.7972 7.2327 35.7646 7.45262 35.7809C7.89245 35.8135 8.2101 36.009 8.42187 36.3592C8.63364 36.7095 8.71509 37.1249 8.68251 37.5891C8.67436 37.7439 8.64178 37.9149 8.59291 38.1022C8.54404 38.2896 8.47888 38.4851 8.38929 38.705L8.31598 38.762C8.09607 38.7131 7.74584 38.6724 7.26528 38.6235L7.28972 38.2977L7.29786 38.3059Z" fill="#801323"/>
<path d="M8.72323 35.5691L8.41372 35.504C8.45445 35.2271 8.47074 35.0642 8.45445 35.0234C8.4463 34.999 8.42187 34.9746 8.39744 34.9501C8.34042 34.9094 8.11236 34.8524 7.71326 34.7628L6.31232 34.4696C5.57113 34.3148 4.88695 34.1845 4.27607 34.0786C4.04802 34.0379 3.90141 34.0297 3.86068 34.0623C3.81996 34.0949 3.7548 34.2497 3.68964 34.5347L3.41271 34.4777C3.44529 34.323 3.46158 34.0949 3.46158 33.7935C3.46158 33.4922 3.44529 33.2397 3.40456 33.0361C3.38827 32.9546 3.38013 32.9057 3.38013 32.8895C3.38013 32.8487 3.41271 32.8406 3.46158 32.8487H3.48601C3.54303 32.8732 3.64077 32.8976 3.76294 32.922L4.97654 33.199C5.26976 33.2641 5.61185 33.3374 6.00281 33.4107L5.67701 32.8243C5.61185 32.7021 5.57113 32.6125 5.56298 32.5555C5.53855 32.4089 5.54669 32.246 5.57927 32.0668C5.66072 31.6677 5.81548 31.3989 6.05983 31.2523C6.29603 31.1057 6.62997 31.0731 7.05351 31.1627L8.56033 31.4885C8.82912 31.5455 9.00016 31.57 9.06532 31.5618C9.10605 31.5618 9.13863 31.5374 9.17121 31.4885C9.20379 31.4478 9.25266 31.3093 9.30967 31.0731L9.61918 31.1383C9.53773 31.4478 9.47257 31.7247 9.4237 31.9691C9.37483 32.1971 9.33411 32.4333 9.30153 32.6777L9.22822 32.7103C8.74767 32.5555 8.26712 32.4333 7.79471 32.3356C7.14311 32.2053 6.73586 32.1564 6.56481 32.2053C6.35305 32.2704 6.21458 32.4252 6.15757 32.694C6.12499 32.8487 6.13313 32.9953 6.182 33.1338C6.23087 33.2723 6.30417 33.37 6.39377 33.4433C6.48336 33.5085 6.6707 33.5736 6.94763 33.6306L8.12051 33.8587C8.38115 33.9076 8.54404 33.932 8.60106 33.9157C8.62549 33.9157 8.64993 33.8913 8.67436 33.8668C8.71509 33.818 8.7721 33.6551 8.83726 33.3863L9.14677 33.4515C9.07347 33.7365 9.00016 34.046 8.935 34.3637C8.83726 34.828 8.76396 35.2271 8.70694 35.5854L8.72323 35.5691Z" fill="#801323"/>
<path d="M4.75661 28.149C4.80548 27.9943 4.91136 27.8721 5.05797 27.7988C5.20458 27.7255 5.35934 27.7092 5.52224 27.7662C5.67699 27.8151 5.79917 27.921 5.87247 28.0676C5.94578 28.2142 5.96207 28.3689 5.90505 28.5318C5.85618 28.6866 5.7503 28.8088 5.60369 28.8821C5.45708 28.9554 5.30232 28.9717 5.14757 28.9147C4.98467 28.8658 4.87064 28.7599 4.79733 28.6133C4.72403 28.4667 4.70774 28.3119 4.76475 28.149H4.75661ZM9.75763 30.9265L9.45626 30.8287C9.53771 30.5518 9.57029 30.3808 9.56215 30.3319C9.554 30.283 9.48884 30.2341 9.38296 30.1853C9.23635 30.112 8.89426 29.9898 8.36484 29.8188C8.13678 29.7454 7.92501 29.6803 7.72953 29.6233L7.29784 29.493C7.15123 29.4441 7.06164 29.4359 7.02091 29.4522C6.98019 29.4685 6.93132 29.55 6.88245 29.6803L6.78471 29.9572L6.49963 29.8676C6.64624 29.2649 6.70326 28.7355 6.66253 28.3038L6.76842 28.2386C7.22454 28.426 7.90057 28.6703 8.80466 28.9635C9.32594 29.1346 9.6436 29.2323 9.75763 29.2486C9.83908 29.2649 9.89609 29.2486 9.92867 29.2323C9.96125 29.2079 10.0346 29.0531 10.1567 28.7762L10.4581 28.8739C10.2952 29.3138 10.1812 29.6559 10.0997 29.8921C10.059 30.0224 9.95311 30.3726 9.78206 30.9428L9.75763 30.9265Z" fill="#801323"/>
<path d="M7.63182 27.2613L7.36304 27.1391C7.51779 26.7074 7.61553 26.3409 7.6644 26.0395L7.72142 25.6078C7.72142 25.6078 7.77029 25.5753 7.8273 25.5997C7.87617 25.6241 7.93319 25.6567 8.01464 25.6974L8.33229 25.8522L8.14496 25.0784C8.10423 24.9155 8.14496 24.6956 8.27527 24.4105C8.45446 24.0114 8.72325 23.7508 9.08163 23.6286C9.44001 23.4983 9.82282 23.5309 10.2382 23.7263C10.45 23.8241 10.6373 23.9463 10.8165 24.101C10.9876 24.2558 11.1179 24.4024 11.1993 24.5327C11.2808 24.663 11.3541 24.8748 11.4192 25.1599C11.5414 25.6486 11.6066 25.9336 11.6147 26.0151C11.631 26.1861 11.5984 26.3653 11.5088 26.5527C11.46 26.6585 11.3948 26.7563 11.3215 26.854C11.2482 26.9518 11.1586 27.0332 11.0609 27.1147L12.136 27.5952C12.3966 27.7011 12.5595 27.75 12.6247 27.7255C12.6899 27.7011 12.7876 27.5382 12.9261 27.2368L13.2111 27.3672C13.0319 27.7255 12.8772 28.035 12.755 28.312C12.5188 28.8251 12.3559 29.1916 12.2745 29.4115L11.9894 29.2812C12.0953 29.0287 12.1523 28.8821 12.1441 28.8333C12.1441 28.8007 12.1279 28.7762 12.1034 28.7518C12.0545 28.7029 11.8265 28.5808 11.4029 28.3771C10.8165 28.0921 10.3767 27.8803 10.0835 27.7418L8.68252 27.1065C8.26713 26.9192 8.03093 26.8214 7.95762 26.8214C7.92504 26.8214 7.89246 26.8214 7.86803 26.8459C7.8273 26.8785 7.74585 27.0251 7.63182 27.2857V27.2613ZM10.3685 26.797C10.5477 26.7563 10.7025 26.683 10.8328 26.5934C10.955 26.5038 11.0527 26.3816 11.1179 26.235C11.2319 25.9907 11.2156 25.7463 11.0771 25.502C10.9387 25.2495 10.6455 25.0214 10.1812 24.8096C9.80653 24.6386 9.48888 24.5897 9.22824 24.6549C8.9676 24.72 8.77212 24.8829 8.66623 25.1273C8.60922 25.2495 8.58478 25.3879 8.58478 25.5345C8.58478 25.6811 8.61736 25.844 8.68252 26.0232L10.3685 26.797Z" fill="#801323"/>
<path d="M11.9406 23.0666C12.0301 22.92 12.1523 22.8223 12.3152 22.7816C12.4781 22.7408 12.641 22.7653 12.7876 22.8467C12.9342 22.9363 13.032 23.0585 13.0727 23.2295C13.1134 23.3924 13.0971 23.5553 13.0075 23.7019C12.9179 23.8485 12.7958 23.9463 12.6247 23.987C12.4618 24.0277 12.2989 24.0114 12.1523 23.9219C12.0057 23.8323 11.908 23.7101 11.8672 23.539C11.8265 23.368 11.851 23.2132 11.9324 23.0666H11.9406Z" fill="#801323"/>
<path d="M27.6442 12.3803C12.5434 19.2384 5.85633 37.0515 12.7144 52.1523C19.5725 67.2612 37.3774 73.9482 52.4864 67.082C67.5953 60.2239 74.2823 42.419 67.4161 27.3101C60.558 12.2011 42.7531 5.5141 27.6442 12.3803ZM38.0372 49.5622L37.9557 49.7495C36.2941 50.4011 34.4126 51.2074 32.3112 52.1604C30.7555 52.869 28.7193 53.8383 26.1943 55.0844L25.559 53.6835L26.9926 49.9938C28.1736 46.9639 28.8252 44.7566 28.9474 43.3883C29.0695 42.0199 28.8985 40.8226 28.4342 39.8045C27.97 38.7863 27.3672 38.1185 26.6179 37.8008C25.8686 37.4831 25.0622 37.5239 24.1988 37.923C23.5554 38.2162 23.0585 38.6153 22.692 39.1203C22.3336 39.6253 22.1544 40.0407 22.1626 40.3746C22.1626 40.5212 22.3092 41.3113 22.5943 42.7448L21.5436 43.2254C21.0549 41.4253 20.558 39.8696 20.053 38.5746C20.4114 37.6379 20.892 36.856 21.5028 36.2288C22.1056 35.6017 22.8793 35.0722 23.816 34.6487C25.4694 33.8994 26.9763 33.7527 28.3446 34.217C29.713 34.6813 30.7148 35.6179 31.3583 37.0352C31.8795 38.1755 32.0262 39.495 31.7981 40.9936C31.57 42.4923 30.446 45.5467 28.4342 50.1812L28.5808 50.3115L31.5212 48.9757C33.6877 47.9902 35.3412 47.1757 36.4815 46.5241L36.6932 46.6218C36.9376 47.3793 37.1412 47.9332 37.3041 48.2915C37.467 48.6499 37.7114 49.0816 38.029 49.5622H38.0372ZM47.5098 33.6306C47.1432 33.7935 46.8745 33.989 46.6871 34.2089C46.6138 34.3066 46.5649 34.4288 46.5405 34.5754C46.4916 34.7953 46.4916 36.0333 46.5324 38.3058L46.6138 44.0154L46.679 49.3015C46.6464 50.4011 46.5405 51.2156 46.3613 51.7369C46.1821 52.2581 45.9215 52.698 45.5876 53.0563C45.2536 53.4147 44.8382 53.7161 44.3332 53.9442C43.8282 54.1722 43.2337 54.2944 42.5495 54.2944C42.3947 53.4799 42.1992 52.698 41.963 51.9649L42.2237 51.7287C42.8834 52.0138 43.5024 52.0219 44.0889 51.7613C44.5776 51.5414 44.9115 51.1911 45.0907 50.7269C45.2617 50.2626 45.3432 49.106 45.3269 47.2571L39.9594 42.0606L37.0353 39.2832C36.791 39.0633 36.5792 38.9411 36.4 38.9167C36.2208 38.8922 35.8136 38.9981 35.1783 39.2343L34.7629 38.3139C36.4978 37.5809 37.6055 37.1003 38.086 36.8886C38.7539 36.5872 39.6743 36.1392 40.8635 35.5446L41.2789 36.465C40.5947 36.8071 40.2119 37.0515 40.1141 37.1736C40.0164 37.304 40.0001 37.4506 40.0815 37.6135C40.1793 37.8415 41.0182 38.7049 42.5821 40.2117L45.2047 42.7448L45.1396 39.837C45.0826 37.2307 44.9767 35.7564 44.8219 35.4225C44.7486 35.2677 44.6346 35.1863 44.4798 35.1781C44.3169 35.1781 43.9015 35.3084 43.2092 35.5854L42.7938 34.665L43.5106 34.3718C44.2762 34.0541 44.7812 33.8423 45.0255 33.7283C45.2943 33.6061 45.9867 33.264 47.1025 32.702L47.5179 33.6224L47.5098 33.6306ZM57.2837 31.6106L56.8602 32.0179C56.5588 31.8061 56.2738 31.6839 56.0131 31.6595C55.7525 31.635 55.4593 31.7002 55.1335 31.8468C54.6855 32.0504 54.3516 32.3437 54.1398 32.7183C53.928 33.093 53.8384 33.4514 53.8873 33.7935C53.928 34.046 54.2457 34.8197 54.8402 36.1229C55.7036 38.0207 56.2249 39.1121 56.4204 39.3972C56.5425 39.5927 56.681 39.7067 56.8276 39.7312C57.0475 39.7637 57.6503 39.5846 58.6277 39.2017L59.0431 40.1221L57.7724 40.6597C56.9661 41.0018 56.2656 41.3031 55.6873 41.5638C55.109 41.8244 54.4982 42.1176 53.7733 42.4679L52.5271 43.0787L52.1117 42.1584C52.8447 41.7756 53.2601 41.5393 53.3497 41.4335C53.423 41.352 53.4556 41.2461 53.4637 41.124C53.4637 40.904 53.3334 40.4886 53.0728 39.8696C52.6085 38.7619 52.1687 37.7682 51.7614 36.8641C50.9795 35.1374 50.4908 34.1274 50.2953 33.826C50.1895 33.6469 50.0591 33.5491 49.9125 33.5165C49.7659 33.4921 49.2609 33.655 48.4057 34.0052L48.0148 33.1419C49.4564 32.3192 50.4501 31.6513 51.004 31.1464L51.9569 30.1934C52.0628 30.1445 52.1443 30.1934 52.2094 30.3319L52.2746 30.4948C52.4619 30.9753 52.7551 31.6595 53.1624 32.5391C53.3741 32.0016 53.5859 31.35 53.7977 30.5762C53.9524 30.0061 54.1235 29.5907 54.319 29.3545C54.5145 29.1101 54.824 28.8983 55.2475 28.7029C55.4837 28.597 55.7443 28.5237 56.0294 28.4992C56.2982 29.273 56.7217 30.3156 57.2756 31.6106H57.2837ZM55.1742 26.4548L33.7366 36.1881L33.1746 34.9582L54.6122 25.225L55.1742 26.4548Z" fill="#801323"/>
</g>
<defs>
<clipPath id="clip0_328_481">
<rect width="80" height="80" fill="white"/>
</clipPath>
</defs>
</svg>
